<svg width="119" height="48" viewBox="0 0 119 48" fill="none" xmlns="http://www.w3.org/2000/svg">
<path fill-rule="evenodd" clip-rule="evenodd" d="M22.3315 0.102256C22.5172 0.10165 22.6832 0.0784894 22.7004 0.050737C22.7392 -0.0120843 25.7363 -0.0189972 25.775 0.0436728C25.7898 0.0675399 26.0013 0.100994 26.2449 0.117999C26.7743 0.155036 27.2813 0.223862 28.3032 0.397289C28.7073 0.465863 29.5768 0.65362 29.8861 0.739047C30.0427 0.78229 30.2276 0.82846 30.297 0.84168C30.3664 0.854901 30.4686 0.884066 30.5242 0.906571C30.5797 0.929075 30.7273 0.975598 30.8522 1.00991C31.4492 1.1739 31.8172 1.29415 32.2403 1.46333C33.1296 1.81902 33.4424 1.94708 33.6537 2.04185C33.7925 2.10411 34.0537 2.22017 34.2341 2.29974C35.6576 2.9276 37.4437 4.01681 38.6302 4.98078C40.5618 6.55015 41.2288 7.20289 42.6416 8.90628C44.0395 10.5917 44.9972 12.1205 45.8182 13.9774L46.1195 14.6586C46.1809 14.7974 46.3169 15.1266 46.4216 15.3902C46.5263 15.6539 46.631 15.915 46.6542 15.9705C46.6921 16.0612 46.7864 16.3522 47.0551 17.2068C47.1031 17.3594 47.1697 17.5865 47.2031 17.7114C47.2364 17.8362 47.2828 18.0065 47.306 18.0898C47.3986 18.4205 47.6638 19.8174 47.7563 20.4614C47.8766 21.2984 47.9137 21.6388 47.9134 21.902C47.9132 22.056 47.9364 22.2053 47.9648 22.2338C48.0312 22.3001 47.9961 25.5165 47.9217 26.1885C47.82 27.1066 47.7582 27.5509 47.6169 28.3834C47.5552 28.7464 47.3606 29.669 47.3083 29.8467C47.2838 29.93 47.2368 30.1003 47.204 30.2252C47.1711 30.3501 47.1265 30.509 47.1048 30.5784C47.0832 30.6478 47.0149 30.8748 46.9532 31.083C46.7512 31.7641 46.3599 32.903 46.1948 33.2906C46.1682 33.353 46.1251 33.4552 46.099 33.5176C45.7567 34.338 44.7591 36.1713 44.1944 37.0181C43.6015 37.9069 42.8915 38.889 42.4714 39.4017C41.6447 40.4105 39.7336 42.2467 38.6555 43.0681C37.5678 43.8969 37.056 44.241 36.2027 44.7172C36.0778 44.787 35.8847 44.8959 35.7736 44.9593C35.4628 45.1369 33.9846 45.8816 33.7294 45.9892C33.6044 46.0419 33.3886 46.1358 33.2498 46.1979C33.111 46.2601 32.8953 46.3459 32.7703 46.3886C32.6454 46.4313 32.3501 46.5369 32.1141 46.6231C31.7281 46.7642 31.1325 46.9524 30.6503 47.0858C30.5532 47.1126 30.4055 47.1547 30.3223 47.1793C29.7075 47.3609 29.3568 47.4485 28.9846 47.5134C27.741 47.7305 27.5643 47.7587 26.9656 47.8364C25.9192 47.9721 25.3861 48.0016 24.0128 47.9999C23.2077 47.9989 22.3105 47.9742 22.019 47.945C21.0651 47.8495 20.262 47.7446 19.6719 47.6384C19.5331 47.6134 19.2718 47.5668 19.0914 47.5349C18.7682 47.4776 18.0497 47.3132 17.7538 47.2287C17.0571 47.0299 16.1931 46.7607 15.9871 46.6782C15.7984 46.6027 15.6342 46.5338 15.4495 46.4529C15.3482 46.4084 15.2513 46.372 15.2344 46.372C15.2175 46.372 15.096 46.324 14.9644 46.2653C14.5623 46.0857 14.4331 46.0309 14.1483 45.919C13.6816 45.7356 13.2455 45.5112 12.3593 44.9988C11.8898 44.7272 11.4964 44.505 11.4852 44.505C11.422 44.505 9.66095 43.3077 9.29909 43.0188C6.90184 41.1046 4.62326 38.5078 3.31988 36.2046C2.89371 35.4514 2.63144 34.9659 2.39228 34.4874C2.21198 34.1267 2.12042 33.9283 1.90373 33.4293C1.86759 33.3461 1.75477 33.0509 1.65307 32.7733C1.55136 32.4958 1.44702 32.2293 1.42128 32.1812C1.39549 32.133 1.37439 32.0523 1.37439 32.002C1.37439 31.9517 1.35541 31.8889 1.33219 31.8626C1.29388 31.8191 1.10111 31.2141 0.963213 30.7045C0.93318 30.5935 0.890174 30.4573 0.867662 30.4018C0.84515 30.3463 0.815268 30.2441 0.801236 30.1747C0.787204 30.1053 0.750054 29.9577 0.718708 29.8467C0.587522 29.3824 0.360835 28.2253 0.258975 27.5004C-0.116514 24.8287 -0.0845129 22.4502 0.360381 19.9568C0.385164 19.818 0.431552 19.5569 0.463503 19.3765C0.549059 18.894 0.744703 18.0674 0.869631 17.6609C0.890932 17.5915 0.932877 17.4439 0.962759 17.3329C1.11267 16.7764 1.62985 15.2306 1.77315 14.9109C1.79803 14.8554 1.85234 14.7305 1.89389 14.6334C2.29219 13.7021 2.55577 13.1847 3.33356 11.8077C3.65736 11.2343 4.04037 10.6371 4.30436 10.2939C4.37906 10.1968 4.64078 9.84481 4.88594 9.51178C5.1311 9.17876 5.46908 8.75747 5.63707 8.57557C5.805 8.39371 6.15238 8.00564 6.40889 7.71318C7.34446 6.64678 8.75031 5.41765 10.2077 4.39207C10.4991 4.18691 10.8362 3.94929 10.9566 3.86402C11.1988 3.69256 11.2232 3.67732 11.621 3.44819C12.2379 3.09285 12.5942 2.90525 13.4381 2.49144C14.5619 1.94037 14.7796 1.84243 15.3814 1.61744C15.548 1.55517 15.7297 1.48599 15.7852 1.46374C15.8407 1.44154 15.9657 1.39602 16.0628 1.36267C16.16 1.32932 16.2849 1.28325 16.3405 1.26024C16.4402 1.21896 16.7323 1.13116 17.1733 1.00981C17.2982 0.975397 17.4572 0.929832 17.5266 0.908539C17.9333 0.783653 18.7601 0.588074 19.2428 0.502546C19.4233 0.470606 19.6731 0.425798 19.798 0.402991C20.4843 0.277701 20.6902 0.247174 21.3123 0.178499C21.6871 0.137123 22.1457 0.102811 22.3315 0.102256ZM25.2621 4.14174C24.1933 3.95782 23.6978 3.89586 22.8014 3.83394C20.6501 3.68529 17.5306 3.95515 16.454 4.38299C16.2934 4.44682 16.2863 4.50066 16.3947 4.82995C16.4647 5.04249 17.062 6.61983 17.174 6.88792C17.1972 6.94343 17.2994 7.2159 17.4012 7.49343C17.5758 7.96996 17.6114 8.06291 17.7247 8.33861C17.7504 8.40108 17.8546 8.67921 17.9564 8.95674C18.0581 9.23426 18.1603 9.50674 18.1833 9.56224C18.2064 9.61775 18.3311 9.94699 18.4604 10.2939C18.5898 10.6408 18.7146 10.97 18.7379 11.0256C18.7611 11.0811 18.8643 11.3535 18.9673 11.6311C19.0702 11.9086 19.1721 12.1811 19.1939 12.2366C19.2659 12.4208 19.6308 13.3898 19.821 13.9017C19.924 14.1792 20.0292 14.4574 20.0546 14.5198L20.1473 14.7469C20.1729 14.8094 20.2542 15.0307 20.328 15.2389C20.4019 15.447 20.4862 15.6741 20.5155 15.7435C20.6019 15.9485 20.6391 16.0458 20.8335 16.576C21.0353 17.1264 21.0706 17.2195 21.1496 17.4086C21.1787 17.478 21.2856 17.7618 21.3873 18.0393C21.4891 18.3169 21.5921 18.5893 21.6162 18.6448C21.6403 18.7004 21.7419 18.9728 21.842 19.2504C22.0529 19.8355 22.2131 20.2674 22.2725 20.4109C22.2954 20.4664 22.3974 20.7389 22.4992 21.0164C22.6009 21.2939 22.7036 21.5664 22.7274 21.6219C22.7511 21.6774 22.8524 21.9499 22.9525 22.2274C23.1211 22.6951 23.387 23.4034 23.4827 23.6403C23.5051 23.6958 23.6296 24.025 23.7593 24.3719C23.889 24.7188 24.0134 25.0481 24.0357 25.1036C24.0935 25.2471 24.2171 25.5702 24.3154 25.8352C24.3617 25.9601 24.4298 26.1304 24.4666 26.2137C24.5033 26.2969 24.6171 26.5921 24.7193 26.8697C24.8949 27.3466 24.931 27.4406 25.0437 27.7148C25.0694 27.7773 25.1736 28.0554 25.2754 28.333C25.3771 28.6105 25.4793 28.883 25.5025 28.9385C25.5257 28.994 25.6508 29.3232 25.7805 29.6701C25.9102 30.017 26.0351 30.3463 26.0582 30.4018C26.0811 30.4573 26.2065 30.7865 26.3367 31.1334C26.4669 31.4803 26.6919 32.0707 26.8366 32.4454C26.9814 32.82 27.1314 33.2344 27.1699 33.3662C27.2791 33.7395 27.3246 33.6976 27.5944 32.9752C27.6981 32.6977 27.8694 32.2435 27.9751 31.966C28.0809 31.6885 28.2507 31.2343 28.3527 30.9568C28.5478 30.4254 28.585 30.3283 28.671 30.1243C28.7003 30.0549 28.7846 29.8278 28.8585 29.6197C28.9323 29.4115 29.0136 29.1901 29.0392 29.1277L29.1322 28.9006C29.1579 28.8382 29.2622 28.56 29.3639 28.2825C29.4656 28.005 29.5673 27.7325 29.5899 27.677C29.6125 27.6215 29.6809 27.4398 29.7418 27.2733C29.8027 27.1068 29.8709 26.9252 29.8933 26.8697C29.9156 26.8141 30.04 26.4849 30.1697 26.138C30.2994 25.7911 30.4244 25.4619 30.4475 25.4063C30.4705 25.3508 30.6527 24.874 30.8522 24.3467C31.0518 23.8194 31.2335 23.3426 31.256 23.2871C31.3341 23.0944 31.6014 22.3767 31.7353 22.0004C31.8093 21.7922 31.8907 21.5709 31.9163 21.5084C31.9418 21.4459 31.9834 21.3438 32.0087 21.2813C32.034 21.2189 32.1379 20.9407 32.2396 20.6632C32.3414 20.3857 32.4456 20.1076 32.4713 20.0451L32.5646 19.818C32.5903 19.7556 32.6945 19.4774 32.7963 19.1999C32.898 18.9224 32.9997 18.6499 33.0224 18.5944C33.045 18.5389 33.1309 18.3118 33.2132 18.0898C33.4262 17.5149 33.8313 16.443 33.8805 16.3237C33.9035 16.2682 34.0055 15.9958 34.1072 15.7182C34.209 15.4407 34.3115 15.1682 34.3351 15.1127C34.3586 15.0572 34.4612 14.7847 34.5629 14.5072C34.6646 14.2297 34.7686 13.9516 34.7938 13.8891L34.8858 13.662C34.9111 13.5996 35.015 13.3214 35.1167 13.0439C35.2185 12.7664 35.3207 12.4939 35.3439 12.4384C35.4559 12.1703 36.0532 10.593 36.1232 10.3804C36.1956 10.1605 36.1956 10.1281 36.1228 10.0171C36.0362 9.88493 34.5182 8.5079 34.1079 8.18921C33.8694 8.00402 33.6061 7.81177 32.8271 7.2541C31.6116 6.38404 29.7019 5.41649 28.3285 4.97497C28.0925 4.89908 27.854 4.81895 27.7985 4.79685C27.3984 4.6376 25.9106 4.25331 25.2621 4.14174ZM15.1519 5.14542C15.1739 5.10289 15.208 4.99506 15.2276 4.90574C15.2669 4.72687 15.2408 4.71637 14.9776 4.80533C14.8943 4.83344 14.6558 4.91235 14.4476 4.98062C13.9106 5.15678 13.7744 5.21718 12.7567 5.7307C11.5226 6.35341 10.4324 7.01049 9.37359 7.76974C8.01877 8.74128 6.58409 10.173 5.32735 11.8077C4.95923 12.2865 3.94865 13.7844 3.94865 13.8512C3.94865 13.8662 3.89172 13.9687 3.82211 14.0789C3.6884 14.2906 3.27591 15.1004 3.09632 15.5038L2.89411 15.9579C2.84162 16.0758 2.70362 16.4221 2.58752 16.7274C2.47138 17.0327 2.35614 17.3279 2.33141 17.3834C2.19472 17.6905 1.81015 19.0621 1.68769 19.6793C1.53202 20.4639 1.48599 20.7723 1.37131 21.7985C1.12564 23.9962 1.25163 26.7338 1.67775 28.4591C1.70172 28.5562 1.74766 28.7492 1.77981 28.888C1.81201 29.0268 1.85653 29.1971 1.87879 29.2665C1.90105 29.3358 1.95829 29.5288 2.00599 29.6954C2.15247 30.2065 2.36911 30.8474 2.53483 31.2596C2.88467 32.1298 2.91375 32.1939 3.42401 33.2219C3.83685 34.0535 3.92786 34.2118 3.99267 34.211C4.04032 34.2104 4.09988 34.0682 4.70892 32.5012C5.01743 31.7073 5.29363 31.001 5.32271 30.9316C5.35173 30.8622 5.39271 30.76 5.41381 30.7045C5.43486 30.649 5.59956 30.2176 5.77976 29.7458C6.25933 28.4903 6.79882 27.0727 7.11444 26.2389C7.26673 25.8365 7.41003 25.4619 7.43284 25.4063C7.45571 25.3508 7.58049 25.0216 7.71021 24.6747C7.9371 24.0678 7.98162 23.952 8.08388 23.7034C8.10957 23.6409 8.23667 23.306 8.36639 22.9591C8.49607 22.6122 8.62099 22.2829 8.64401 22.2274C8.66698 22.1719 8.79241 21.8427 8.92269 21.4958C9.05302 21.1489 9.28465 20.5358 9.43744 20.1334C9.59028 19.731 9.82691 19.1066 9.96335 18.7458C10.0998 18.385 10.3233 17.7946 10.46 17.4338L10.9571 16.1219C11.5769 14.4855 11.9366 13.5406 11.9753 13.4476C11.9983 13.3921 12.1457 13.0061 12.3028 12.5898C12.46 12.1735 12.6124 11.7761 12.6415 11.7067C12.6615 11.6591 12.6773 11.6215 12.693 11.5837C12.7656 11.4083 12.8331 11.2307 13.2867 10.0416C13.736 8.86356 13.8044 8.68378 13.8776 8.50602C13.8939 8.4664 13.9105 8.42689 13.9316 8.37646C13.9606 8.30708 14.0676 8.02325 14.1693 7.74572C14.2711 7.4682 14.3783 7.18437 14.4077 7.11499C14.4947 6.90957 14.6365 6.52981 15.0109 5.5003C15.0664 5.34766 15.1299 5.18796 15.1519 5.14542ZM16.2655 15.3146C16.1883 15.1274 15.919 14.4086 15.8065 14.0894C15.7451 13.9151 15.6761 13.7609 15.6532 13.7468C15.6065 13.7179 15.573 13.7927 15.2334 14.6838C15.1012 15.0307 14.9747 15.36 14.9523 15.4155C14.8566 15.6524 14.5907 16.3607 14.4221 16.8283C14.322 17.1059 14.2205 17.3783 14.1965 17.4338C14.1725 17.4893 14.0923 17.7051 14.0183 17.9132C13.9442 18.1213 13.8194 18.4619 13.741 18.6701C13.6625 18.8782 13.5377 19.2188 13.4636 19.427C13.3896 19.6351 13.3104 19.8508 13.2875 19.9063C13.2363 20.0308 13.0862 20.4403 12.9084 20.9407C12.8344 21.1489 12.7552 21.3646 12.7325 21.4201C12.7097 21.4756 12.6639 21.6005 12.6305 21.6976C12.5971 21.7947 12.5512 21.9196 12.5285 21.9751C12.5058 22.0306 12.4266 22.2464 12.3526 22.4545C12.1636 22.9861 12.0222 23.3708 11.9723 23.4889C11.9488 23.5444 11.8475 23.8282 11.7472 24.1196C11.6468 24.411 11.5455 24.6949 11.522 24.7504C11.4548 24.9095 11.0975 25.8957 10.9554 26.3146C10.9272 26.3979 10.885 26.5114 10.8617 26.5669C10.7202 26.9038 10.4698 27.6772 10.4911 27.7117C10.5051 27.7342 12.8338 27.7527 15.666 27.7527H20.8156L20.7817 27.5887C20.7449 27.4101 20.6582 27.1351 20.5391 26.8192C20.4973 26.7082 20.4025 26.4471 20.3284 26.2389C20.1876 25.8431 20.1489 25.7408 20.0614 25.5325C20.0323 25.4631 19.8799 25.0657 19.7228 24.6495C19.5657 24.2332 19.4179 23.8472 19.3945 23.7917C19.371 23.7362 19.2914 23.5204 19.2176 23.3123C19.1437 23.1042 19.0646 22.8884 19.0418 22.8329C18.9906 22.7085 18.8405 22.2989 18.6626 21.7985C18.5886 21.5904 18.5094 21.3747 18.4865 21.3192C18.4354 21.1947 18.2852 20.7852 18.1074 20.2848C18.0334 20.0766 17.9489 19.8496 17.9196 19.7802C17.8278 19.5623 17.6957 19.2066 17.4512 18.5187C17.3772 18.3106 17.2958 18.0892 17.2702 18.0267L17.1773 17.7997C17.1518 17.7372 17.0704 17.5158 16.9964 17.3077C16.8185 16.8073 16.6684 16.3977 16.6172 16.2733C16.5944 16.2178 16.5153 16.0021 16.4414 15.7939C16.3676 15.5858 16.2884 15.3701 16.2655 15.3146ZM40.4418 16.8788C40.1161 16.0098 39.3157 14.3086 39.071 13.965C39.0165 13.8886 38.9529 13.826 38.9296 13.826C38.8797 13.826 38.6208 14.4322 38.4124 15.037C38.2798 15.422 37.7871 16.7342 37.6546 17.0554C37.5681 17.2649 37.5325 17.3579 37.2879 18.0141C37.1586 18.361 37.0318 18.6959 37.0063 18.7584C36.8897 19.0431 36.8568 19.1292 36.6829 19.6036C36.4873 20.1371 36.4502 20.2341 36.3647 20.4361C36.3353 20.5055 36.228 20.7894 36.1263 21.0669C35.9078 21.6629 35.8501 21.8132 35.7095 22.1517C35.6808 22.2211 35.5511 22.5617 35.4214 22.9086C35.2917 23.2555 35.1668 23.5848 35.1438 23.6403C35.1209 23.6958 34.9601 24.1159 34.7864 24.5738C34.2724 25.9288 33.7232 27.365 33.6671 27.5004C33.576 27.7205 33.5393 27.8169 33.3501 28.333C33.2484 28.6105 33.1414 28.8943 33.1124 28.9637C33.0834 29.0331 33.043 29.1353 33.0227 29.1908C33.0024 29.2463 32.9624 29.3484 32.9339 29.4178C32.9054 29.4872 32.7304 29.9413 32.545 30.427C32.1672 31.4168 32.0745 31.6573 32.0004 31.8399C31.9005 32.0859 31.8674 32.1734 31.6844 32.6724C31.5827 32.95 31.4788 33.2281 31.4535 33.2906C31.4282 33.353 31.3878 33.4552 31.3638 33.5176C31.3036 33.6736 31.2291 33.8594 31.1664 34.0096C31.1373 34.079 31.0304 34.3628 30.9287 34.6403C30.7393 35.1568 30.7026 35.2532 30.6116 35.4729C30.5829 35.5423 30.4174 35.9737 30.244 36.4316C30.0705 36.8895 29.7984 37.6048 29.6392 38.0211C29.48 38.4374 29.2432 39.0618 29.1129 39.4087C28.9827 39.7556 28.8571 40.0848 28.8339 40.1403C28.8107 40.1959 28.7085 40.4683 28.6068 40.7459C28.505 41.0234 28.4026 41.2959 28.3792 41.3514C28.3557 41.4069 28.276 41.6226 28.202 41.8307C27.9671 42.4916 27.8518 42.8026 27.7271 43.1113C27.6949 43.1912 27.6796 43.2677 27.6932 43.2813C27.7202 43.3083 28.5992 43.0309 28.8837 42.9057C28.9809 42.8629 29.1285 42.799 29.2118 42.7636C29.8166 42.5064 30.6023 42.128 31.1299 41.8399C33.0662 40.7821 35.0872 39.2018 36.3329 37.7714C36.525 37.5508 36.8185 37.22 36.9851 37.0364C37.8015 36.1362 38.9104 34.4328 39.6289 32.9752C39.9974 32.2275 40.0314 32.1499 40.2911 31.4614C40.4063 31.1561 40.5204 30.861 40.5448 30.8054C40.5957 30.6891 40.6859 30.4091 40.8455 29.872C40.9073 29.6638 40.9756 29.4368 40.9973 29.3674C41.0189 29.298 41.062 29.1447 41.093 29.0268C41.1116 28.956 41.1363 28.8622 41.1591 28.776C41.1742 28.7187 41.1885 28.6647 41.1996 28.6231C41.3262 28.1462 41.552 26.7412 41.6515 25.81C41.7211 25.1598 41.7206 22.5134 41.6509 21.9525C41.5365 21.0326 41.3078 19.6922 41.1985 19.3008C41.1752 19.2176 41.1293 19.0473 41.0964 18.9224C41.0635 18.7975 41.0189 18.6385 40.9973 18.5692C40.9756 18.4998 40.9073 18.2727 40.8455 18.0646C40.6797 17.5063 40.5955 17.2471 40.5343 17.1059C40.5042 17.0365 40.4626 16.9343 40.4418 16.8788ZM22.2463 31.4614C22.2027 31.3227 22.1458 31.1751 22.12 31.1334C22.0788 31.0669 21.3014 31.0562 15.6988 31.0454C12.1928 31.0386 9.29929 31.0499 9.2687 31.0706C9.18642 31.1262 9.01435 31.5447 8.73451 32.3697C8.7063 32.4529 8.66506 32.5665 8.6429 32.622C8.62074 32.6775 8.57531 32.8024 8.54195 32.8995C8.50858 32.9966 8.46275 33.1215 8.44009 33.177C8.41743 33.2325 8.33096 33.4823 8.24798 33.7321C8.16495 33.9818 8.06283 34.277 8.02109 34.388C7.9793 34.499 7.8844 34.7602 7.8102 34.9683C7.61557 35.5143 7.47837 35.887 7.42946 36.0027C7.38313 36.1123 7.05453 37.0537 6.96276 37.3399C6.93162 37.437 6.88806 37.5381 6.86595 37.5644C6.84384 37.5908 6.82577 37.7059 6.82577 37.8202C6.82577 38.0632 7.00849 38.3064 7.47449 38.6836C7.63127 38.8105 7.87314 39.0203 8.01195 39.1497C8.64795 39.7429 9.22953 40.1828 10.5357 41.0587C11.1252 41.454 13.1239 42.5371 13.2639 42.5371C13.277 42.5371 13.384 42.5799 13.5017 42.6321C14.0684 42.8837 14.2098 42.9385 14.7505 43.1164C15.0697 43.2215 15.3764 43.3246 15.4319 43.3454C15.4874 43.3663 15.6351 43.4114 15.76 43.4455C15.8849 43.4796 16.0439 43.5258 16.1133 43.5481C16.1827 43.5704 16.4099 43.6256 16.6181 43.6709C16.8263 43.7161 17.0761 43.773 17.1733 43.7973C17.2705 43.8216 17.4749 43.8646 17.6276 43.8927L18.1828 43.9952C20.2107 44.3696 22.9018 44.3533 25.2494 43.9523C26.173 43.7946 26.6123 43.6622 26.6123 43.5416C26.6123 43.4599 26.4793 43.0481 26.3612 42.7642C26.3106 42.6426 26.164 42.2431 25.9816 41.7298C25.9076 41.5217 25.8284 41.3059 25.8057 41.2504C25.783 41.1949 25.7371 41.0701 25.7037 40.9729C25.6704 40.8758 25.6234 40.7509 25.5994 40.6954C25.5754 40.6399 25.509 40.4516 25.4518 40.2771C25.3492 39.9636 25.229 39.6303 25.1478 39.4339C25.1249 39.3784 25.0456 39.1627 24.9716 38.9546C24.7826 38.4229 24.6411 38.0382 24.5912 37.9202C24.5678 37.8647 24.4665 37.5808 24.3661 37.2894C24.2658 36.998 24.1645 36.7142 24.141 36.6587C24.0917 36.5421 23.9529 36.1647 23.7604 35.6243C23.5679 35.0839 23.4291 34.7065 23.3798 34.5899C23.3563 34.5344 23.255 34.2505 23.1547 33.9591C23.0543 33.6677 22.953 33.3839 22.9296 33.3284C22.9061 33.2729 22.842 33.1026 22.7872 32.95C22.4841 32.1067 22.4104 31.9062 22.3701 31.8146C22.3457 31.7591 22.29 31.6002 22.2463 31.4614ZM95.5869 10.395V17.7915H97.5693V10.395H95.5869ZM95.7646 7.74951C95.5687 7.94092 95.4707 8.18473 95.4707 8.48096C95.4707 8.78174 95.571 9.02783 95.7715 9.21924C95.9766 9.41064 96.2454 9.50635 96.5781 9.50635C96.9108 9.50635 97.1774 9.41064 97.3779 9.21924C97.583 9.02783 97.6855 8.78174 97.6855 8.48096C97.6855 8.18473 97.5853 7.94092 97.3848 7.74951C97.1842 7.55811 96.9154 7.4624 96.5781 7.4624C96.2363 7.4624 95.9652 7.55811 95.7646 7.74951ZM58.8643 15.7407H62.46L63.1504 17.7915H65.3311L61.6055 7.83838H59.7051L56 17.7915H58.1807L58.8643 15.7407ZM61.9062 14.0796H59.418L60.6553 10.354L61.9062 14.0796ZM68.4551 17.9282C69.3164 17.9282 69.9909 17.632 70.4785 17.0396L70.5332 17.7915H72.3926V10.395H70.4102V15.6313C70.1595 16.0962 69.6992 16.3286 69.0293 16.3286C68.3275 16.3286 67.9766 15.9435 67.9766 15.1733V10.395H66.001V15.2417C66.0101 16.1213 66.222 16.7889 66.6367 17.2446C67.056 17.7004 67.6621 17.9282 68.4551 17.9282ZM76.248 8.57666V10.395H77.5127V11.8442H76.248V15.5356C76.248 15.8091 76.3005 16.005 76.4053 16.1235C76.5101 16.242 76.7106 16.3013 77.0068 16.3013C77.2256 16.3013 77.4193 16.2853 77.5879 16.2534V17.7505C77.2005 17.869 76.8018 17.9282 76.3916 17.9282C75.0062 17.9282 74.2998 17.2287 74.2725 15.8296V11.8442H73.1924V10.395H74.2725V8.57666H76.248ZM78.5244 12.063C78.2419 12.6372 78.1006 13.2912 78.1006 14.0249V14.1138C78.1006 15.2895 78.4173 16.2192 79.0508 16.9028C79.6888 17.5864 80.541 17.9282 81.6074 17.9282C82.6738 17.9282 83.5238 17.5864 84.1572 16.9028C84.7907 16.2147 85.1074 15.3032 85.1074 14.1685L85.0938 13.6626C85.0208 12.6144 84.6676 11.785 84.0342 11.1743C83.4053 10.5636 82.5918 10.2583 81.5938 10.2583C80.8919 10.2583 80.2744 10.4155 79.7412 10.73C79.2126 11.0444 78.807 11.4888 78.5244 12.063ZM80.4727 15.7817C80.2083 15.408 80.0762 14.8703 80.0762 14.1685C80.0762 13.38 80.2083 12.799 80.4727 12.4253C80.737 12.047 81.1107 11.8579 81.5938 11.8579C82.0814 11.8579 82.4596 12.047 82.7285 12.4253C82.9974 12.8035 83.1318 13.3368 83.1318 14.0249C83.1318 14.8315 82.9974 15.4194 82.7285 15.7886C82.4596 16.1532 82.0859 16.3354 81.6074 16.3354C81.1152 16.3354 80.737 16.1509 80.4727 15.7817ZM90.1318 15.3237L92.3877 7.83838H94.6709L91.2051 17.7915H89.0654L85.6133 7.83838H87.8896L90.1318 15.3237ZM103.209 15.7476C103.209 15.506 103.088 15.3169 102.847 15.1802C102.61 15.0389 102.227 14.9136 101.698 14.8042C99.9391 14.4351 99.0596 13.6877 99.0596 12.562C99.0596 11.9058 99.3307 11.3589 99.873 10.9214C100.42 10.4793 101.133 10.2583 102.013 10.2583C102.951 10.2583 103.701 10.4793 104.262 10.9214C104.827 11.3634 105.109 11.9377 105.109 12.644H103.134C103.134 12.3615 103.043 12.1291 102.86 11.9468C102.678 11.7599 102.393 11.6665 102.006 11.6665C101.673 11.6665 101.416 11.7417 101.233 11.8921C101.051 12.0425 100.96 12.2339 100.96 12.4663C100.96 12.6851 101.062 12.8628 101.268 12.9995C101.477 13.1317 101.828 13.2479 102.32 13.3481C102.812 13.4438 103.227 13.5532 103.564 13.6763C104.608 14.0591 105.13 14.7222 105.13 15.6655C105.13 16.34 104.84 16.8869 104.262 17.3062C103.683 17.7209 102.936 17.9282 102.02 17.9282C101.4 17.9282 100.848 17.8188 100.365 17.6001C99.8867 17.3768 99.5107 17.0737 99.2373 16.6909C98.9639 16.3035 98.8271 15.8866 98.8271 15.4399H100.7C100.718 15.7909 100.848 16.0597 101.09 16.2466C101.331 16.4334 101.655 16.5269 102.061 16.5269C102.439 16.5269 102.724 16.4562 102.915 16.3149C103.111 16.1691 103.209 15.98 103.209 15.7476ZM106.524 12.063C106.242 12.6372 106.101 13.2912 106.101 14.0249V14.1138C106.101 15.2895 106.417 16.2192 107.051 16.9028C107.689 17.5864 108.541 17.9282 109.607 17.9282C110.674 17.9282 111.524 17.5864 112.157 16.9028C112.791 16.2147 113.107 15.3032 113.107 14.1685L113.094 13.6626C113.021 12.6144 112.668 11.785 112.034 11.1743C111.405 10.5636 110.592 10.2583 109.594 10.2583C108.892 10.2583 108.274 10.4155 107.741 10.73C107.213 11.0444 106.807 11.4888 106.524 12.063ZM108.473 15.7817C108.208 15.408 108.076 14.8703 108.076 14.1685C108.076 13.38 108.208 12.799 108.473 12.4253C108.737 12.047 109.111 11.8579 109.594 11.8579C110.081 11.8579 110.46 12.047 110.729 12.4253C110.997 12.8035 111.132 13.3368 111.132 14.0249C111.132 14.8315 110.997 15.4194 110.729 15.7886C110.46 16.1532 110.086 16.3354 109.607 16.3354C109.115 16.3354 108.737 16.1509 108.473 15.7817ZM118.48 12.2476C118.212 12.2111 117.975 12.1929 117.77 12.1929C117.022 12.1929 116.532 12.4458 116.3 12.9517V17.7915H114.324V10.395H116.19L116.245 11.2769C116.642 10.5978 117.191 10.2583 117.893 10.2583C118.111 10.2583 118.316 10.2879 118.508 10.3472L118.48 12.2476ZM63.9688 36.6118C63.9688 36.0584 63.7734 35.6353 63.3828 35.3423C62.9922 35.0428 62.2891 34.7303 61.2734 34.4048C60.2578 34.0728 59.4538 33.7472 58.8613 33.4282C57.2467 32.5558 56.4395 31.3807 56.4395 29.9028C56.4395 29.1346 56.6543 28.451 57.084 27.8521C57.5202 27.2466 58.1419 26.7746 58.9492 26.436C59.763 26.0975 60.6745 25.9282 61.6836 25.9282C62.6992 25.9282 63.6042 26.1138 64.3984 26.4849C65.1927 26.8494 65.8079 27.367 66.2441 28.0376C66.6869 28.7082 66.9082 29.4699 66.9082 30.3228H63.9785C63.9785 29.6717 63.7734 29.1672 63.3633 28.8091C62.9531 28.4445 62.377 28.2622 61.6348 28.2622C60.9186 28.2622 60.362 28.4152 59.9648 28.7212C59.5677 29.0207 59.3691 29.4178 59.3691 29.9126C59.3691 30.3748 59.6003 30.7622 60.0625 31.0747C60.5312 31.3872 61.2181 31.6802 62.123 31.9536C63.7897 32.4549 65.0039 33.0767 65.7656 33.8188C66.5273 34.561 66.9082 35.4855 66.9082 36.5923C66.9082 37.8228 66.4427 38.7896 65.5117 39.4927C64.5807 40.1893 63.3275 40.5376 61.752 40.5376C60.6582 40.5376 59.6621 40.339 58.7637 39.9419C57.8652 39.5382 57.1784 38.9881 56.7031 38.2915C56.2344 37.5949 56 36.7876 56 35.8696H58.9395C58.9395 37.4386 59.877 38.2231 61.752 38.2231C62.4486 38.2231 62.9922 38.0832 63.3828 37.8032C63.7734 37.5168 63.9688 37.1196 63.9688 36.6118ZM72.0156 40.3423H69.0859V26.1235H72.0156V40.3423ZM77.6699 34.1802H83.2949V31.8853H77.6699V28.4966H84.252V26.1235H74.7402V40.3423H84.2715V37.9888H77.6699V34.1802ZM89.8184 26.1235L93.4707 36.436L97.1035 26.1235H100.951V40.3423H98.0117V36.4556L98.3047 29.7466L94.4668 40.3423H92.4551L88.627 29.7563L88.9199 36.4556V40.3423H85.9902V26.1235H89.8184Z" fill="white"/>
</svg>
