<svg width="1758" height="635" viewBox="0 0 1758 635" fill="none" xmlns="http://www.w3.org/2000/svg">
<g clip-path="url(#clip0_701_2314)">
<g clip-path="url(#clip1_701_2314)">
<path d="M380.361 24.0591H209.857L153.253 54.1368C153.253 54.1368 87.8798 56.8437 59.2922 100.486C30.7047 144.129 5 204.014 5 317.497C5 430.98 30.6747 490.744 59.2922 534.387C87.9098 578.03 153.253 580.737 153.253 580.737L209.857 610.814H380.361L399.64 598.061H940.16L992.11 610.814H1146.79L1178.02 589.76C1178.02 589.76 1202.22 589.429 1249.49 580.015C1369.15 553.155 1355.73 317.467 1355.73 317.467C1355.73 317.467 1369.15 81.7781 1249.49 54.9188C1202.22 45.5045 1178.02 45.1736 1178.02 45.1736L1146.79 24.1192H991.93L939.98 36.8722H399.46L380.361 24.0591Z" fill="#8F8F8F"/>
<path d="M5 317.497H1355.55C1355.55 317.497 1368.97 81.8082 1249.31 54.9489C1202.04 45.5345 1177.84 45.2037 1177.84 45.2037L1146.61 24.1493H991.93L939.98 36.9023H399.46L380.361 24.0591H209.857L153.253 54.1368C153.253 54.1368 87.8798 56.8438 59.2922 100.486C30.7047 144.129 5 204.014 5 317.497Z" fill="#787878"/>
<path d="M29.083 317.497L47.7009 444.395L389.7 497.181L362.164 317.497H29.083Z" fill="#B3B3B3"/>
<path d="M29.083 317.497L47.7009 190.569L389.7 137.813L362.164 317.497H29.083Z" fill="#8F8F8F"/>
<path d="M1210.21 317.497C1210.21 483.345 1174.03 513.002 1174.03 513.002L1287.68 510.656C1287.68 510.656 1323.27 520.13 1334.98 454.17C1346.69 388.21 1345.46 317.527 1345.46 317.527L1210.21 317.497Z" fill="#B3B3B3"/>
<path d="M1287.68 510.566C1287.68 510.566 1276.54 556.705 1235.31 572.676L1259.79 577.067C1259.79 577.067 1311.56 548.885 1315.88 499.828C1302.25 514.476 1287.68 510.566 1287.68 510.566Z" fill="#EF4136"/>
<path d="M30.3748 433.657L56.6501 444.395C56.6501 444.395 42.9269 402.106 42.9269 317.497H16.6816C16.6816 357.921 26.8915 423.581 30.3748 433.657Z" fill="#414042"/>
<path d="M41.4854 449.448L59.0523 455.975C61.2552 456.862 63.2333 458.229 64.8434 459.977C66.4535 461.725 67.6551 463.81 68.3612 466.081C76.0486 488.759 101.093 555.381 133.314 567.473H110.101C110.101 567.473 65.058 538.929 41.4854 449.448Z" fill="#A7A9AC"/>
<path d="M41.4847 449.448L59.0516 455.975C60.8161 456.653 62.4288 457.676 63.7962 458.982V458.982L362.404 494.143L360.482 488.609L56.6493 444.395L30.374 433.657L41.4847 449.448Z" fill="#787878"/>
<path d="M209.858 610.935H380.362L399.64 598.182H940.16L992.11 610.935H1146.79L1178.02 589.88C1178.02 589.88 1202.22 589.55 1249.49 580.135C1253.03 579.332 1256.51 578.328 1259.94 577.128L1235.49 572.736C1235.49 572.736 914.636 596.227 760.047 591.204C605.458 586.181 235.142 593.219 133.584 567.533H110.102L107.099 570.54C121.893 576.184 137.433 579.629 153.223 580.767L209.858 610.935Z" fill="#B3B3B3"/>
<path d="M468.105 574.992L481.258 612.92C483.411 619.332 487.274 625.032 492.429 629.403L497.684 633.794C501.798 637.223 507.323 632.771 505.972 627.147L495.282 583.504C494.849 581.441 493.862 579.536 492.428 577.994C490.994 576.452 489.167 575.33 487.144 574.751L483.871 573.939L482.639 569.067C482.119 566.947 480.85 565.087 479.066 563.833H478.916C472.61 559.803 465.433 567.292 468.105 574.992Z" fill="#B3B3B3"/>
<path d="M1210.21 317.497C1210.21 151.649 1174.03 121.992 1174.03 121.992L1287.68 124.338C1287.68 124.338 1323.27 114.864 1334.98 180.854C1346.69 246.845 1345.46 317.497 1345.46 317.497H1210.21Z" fill="#8F8F8F"/>
<path d="M1287.68 124.428C1287.68 124.428 1276.54 78.199 1235.31 62.318L1259.79 57.9266C1259.79 57.9266 1311.56 86.1094 1315.88 135.166C1302.25 120.518 1287.68 124.428 1287.68 124.428Z" fill="#EF4136"/>
<path d="M30.3748 201.337L56.6501 190.569C56.6501 190.569 42.9269 232.888 42.9269 317.497H16.6816C16.6816 277.193 26.8915 211.383 30.3748 201.337Z" fill="#1C191A"/>
<path d="M41.4854 185.546L59.0523 179.019C61.2552 178.132 63.2333 176.765 64.8434 175.017C66.4535 173.269 67.6551 171.184 68.3612 168.913C76.1387 146.235 101.093 79.6126 133.404 67.5214H110.101C110.101 67.5214 65.058 96.0651 41.4854 185.546Z" fill="#A7A9AC"/>
<path d="M41.4847 185.546L59.0516 179.019C60.8161 178.341 62.4288 177.318 63.7962 176.011L362.404 140.851L360.482 146.415L56.6493 190.569L30.374 201.337L41.4847 185.546Z" fill="#6B6B6B"/>
<path d="M209.858 24.0591H380.362L399.64 36.812H940.16L991.93 24.0591H1146.61L1177.84 45.1135C1177.84 45.1135 1202.04 45.4443 1249.31 54.8586C1252.85 55.6475 1256.34 56.652 1259.76 57.8664L1235.31 62.2577C1235.31 62.2577 914.456 38.7671 759.867 43.79C605.278 48.813 234.962 41.7748 133.404 67.4612H110.102L107.099 64.4534C121.898 58.776 137.448 55.3003 153.253 54.1368L209.858 24.0591Z" fill="#6B6B6B"/>
<path d="M468.574 60.1523L481.727 22.0739C483.879 15.6533 487.742 9.94351 492.898 5.56129L498.153 1.20002C502.267 -2.22883 507.792 2.22266 506.441 7.84719L495.75 51.4298C495.313 53.4868 494.324 55.3856 492.89 56.9224C491.456 58.4591 489.632 59.5757 487.612 60.1523L484.339 60.9343L483.108 65.837C482.61 67.9588 481.335 69.816 479.535 71.0404H479.385C473.079 75.1911 465.902 67.7018 468.574 60.1523Z" fill="#6B6B6B"/>
<path d="M67.76 464.577C65.0566 468.542 63.6504 473.251 63.7361 478.052C63.7361 488.609 69.9521 497.181 77.6095 497.181C78.5125 497.181 79.4114 497.06 80.282 496.82C74.8768 484.308 70.8229 473.089 68.4507 466.081C68.2511 465.566 68.0205 465.064 67.76 464.577V464.577Z" fill="white"/>
<path d="M86.0782 520.611C86.0782 527.319 89.7417 532.642 94.246 532.642C95.608 532.618 96.921 532.13 97.9696 531.259C94.3361 525.243 90.9729 519.228 87.9099 512.912C86.6566 515.281 86.0262 517.931 86.0782 520.611V520.611Z" fill="white"/>
<path d="M67.76 170.417C65.0566 166.452 63.6504 161.743 63.7361 156.942C63.7361 146.355 69.9521 137.813 77.6095 137.813C78.5125 137.813 79.4114 137.934 80.282 138.174C74.8768 150.686 70.8229 161.905 68.4507 168.913C68.2511 169.428 68.0205 169.93 67.76 170.417V170.417Z" fill="white"/>
<path d="M86.0782 114.292C86.0782 107.645 89.5916 102.261 94.0959 102.261C95.4539 102.306 96.7605 102.792 97.8195 103.645C94.186 109.66 90.8228 115.676 87.7598 122.022C86.5535 119.63 85.9748 116.97 86.0782 114.292V114.292Z" fill="white"/>
<g filter="url(#filter0_i_701_2314)">
<rect x="196" y="46" width="1035" height="542" rx="150" fill="#525252"/>
<path d="M694.141 102.694C693.804 103.177 693.332 103.54 692.726 103.781C692.124 104.018 691.422 104.137 690.62 104.137C689.809 104.137 689.089 103.948 688.46 103.569C687.831 103.187 687.344 102.644 686.997 101.942C686.655 101.241 686.48 100.427 686.471 99.502V98.6338C686.471 97.1344 686.82 95.9723 687.517 95.1475C688.219 94.3226 689.203 93.9102 690.47 93.9102C691.509 93.9102 692.345 94.1768 692.979 94.71C693.612 95.2386 694 95.9906 694.141 96.9658H692.828C692.582 95.6488 691.798 94.9902 690.477 94.9902C689.597 94.9902 688.93 95.3001 688.474 95.9199C688.023 96.5352 687.795 97.4284 687.79 98.5996V99.4131C687.79 100.53 688.045 101.418 688.556 102.079C689.066 102.735 689.757 103.063 690.627 103.063C691.119 103.063 691.55 103.009 691.919 102.899C692.288 102.79 692.594 102.605 692.835 102.346V100.11H690.531V99.0439H694.141V102.694ZM700.853 104C700.78 103.854 700.721 103.594 700.676 103.221C700.088 103.831 699.386 104.137 698.57 104.137C697.841 104.137 697.242 103.932 696.772 103.521C696.307 103.107 696.075 102.583 696.075 101.949C696.075 101.179 696.367 100.582 696.95 100.158C697.538 99.7298 698.363 99.5156 699.425 99.5156H700.655V98.9346C700.655 98.4925 700.523 98.1416 700.259 97.8818C699.994 97.6175 699.605 97.4854 699.09 97.4854C698.638 97.4854 698.26 97.5993 697.955 97.8271C697.65 98.055 697.497 98.3307 697.497 98.6543H696.225C696.225 98.2852 696.355 97.9297 696.615 97.5879C696.879 97.2415 697.235 96.9681 697.681 96.7676C698.133 96.5671 698.627 96.4668 699.165 96.4668C700.017 96.4668 700.685 96.681 701.168 97.1094C701.651 97.5332 701.901 98.1188 701.92 98.8662V102.271C701.92 102.95 702.006 103.49 702.179 103.891V104H700.853ZM698.755 103.036C699.151 103.036 699.527 102.934 699.883 102.729C700.238 102.523 700.496 102.257 700.655 101.929V100.411H699.664C698.114 100.411 697.34 100.865 697.34 101.771C697.34 102.168 697.472 102.478 697.736 102.701C698 102.924 698.34 103.036 698.755 103.036ZM705.768 94.8125V96.6035H707.149V97.5811H705.768V102.168C705.768 102.464 705.829 102.688 705.953 102.838C706.076 102.984 706.285 103.057 706.581 103.057C706.727 103.057 706.928 103.029 707.183 102.975V104C706.85 104.091 706.527 104.137 706.212 104.137C705.647 104.137 705.221 103.966 704.934 103.624C704.647 103.282 704.503 102.797 704.503 102.168V97.5811H703.157V96.6035H704.503V94.8125H705.768ZM711.852 104.137C710.849 104.137 710.033 103.809 709.404 103.152C708.775 102.492 708.461 101.61 708.461 100.507V100.274C708.461 99.5407 708.6 98.8867 708.878 98.3125C709.16 97.7337 709.552 97.2826 710.054 96.959C710.56 96.6309 711.106 96.4668 711.694 96.4668C712.656 96.4668 713.403 96.7835 713.937 97.417C714.47 98.0505 714.736 98.9574 714.736 100.138V100.664H709.726C709.744 101.393 709.956 101.983 710.361 102.435C710.771 102.881 711.291 103.104 711.92 103.104C712.367 103.104 712.745 103.013 713.055 102.831C713.365 102.649 713.636 102.407 713.868 102.106L714.641 102.708C714.021 103.66 713.091 104.137 711.852 104.137ZM711.694 97.5059C711.184 97.5059 710.756 97.6927 710.409 98.0664C710.063 98.4355 709.849 98.9551 709.767 99.625H713.472V99.5293C713.435 98.8867 713.262 98.39 712.952 98.0391C712.642 97.6836 712.223 97.5059 711.694 97.5059ZM722.905 102.257L724.327 96.6035H725.591L723.438 104H722.413L720.615 98.3945L718.865 104H717.839L715.693 96.6035H716.951L718.407 102.141L720.129 96.6035H721.148L722.905 102.257ZM731.6 104C731.527 103.854 731.468 103.594 731.422 103.221C730.834 103.831 730.132 104.137 729.317 104.137C728.587 104.137 727.988 103.932 727.519 103.521C727.054 103.107 726.821 102.583 726.821 101.949C726.821 101.179 727.113 100.582 727.696 100.158C728.284 99.7298 729.109 99.5156 730.171 99.5156H731.402V98.9346C731.402 98.4925 731.269 98.1416 731.005 97.8818C730.741 97.6175 730.351 97.4854 729.836 97.4854C729.385 97.4854 729.007 97.5993 728.701 97.8271C728.396 98.055 728.243 98.3307 728.243 98.6543H726.972C726.972 98.2852 727.102 97.9297 727.362 97.5879C727.626 97.2415 727.981 96.9681 728.428 96.7676C728.879 96.5671 729.374 96.4668 729.911 96.4668C730.764 96.4668 731.431 96.681 731.914 97.1094C732.397 97.5332 732.648 98.1188 732.666 98.8662V102.271C732.666 102.95 732.753 103.49 732.926 103.891V104H731.6ZM729.501 103.036C729.898 103.036 730.274 102.934 730.629 102.729C730.985 102.523 731.242 102.257 731.402 101.929V100.411H730.41C728.861 100.411 728.086 100.865 728.086 101.771C728.086 102.168 728.218 102.478 728.483 102.701C728.747 102.924 729.086 103.036 729.501 103.036ZM737.109 102.147L738.832 96.6035H740.185L737.212 105.142C736.751 106.372 736.02 106.987 735.017 106.987L734.778 106.967L734.306 106.878V105.853L734.648 105.88C735.077 105.88 735.409 105.793 735.646 105.62C735.888 105.447 736.086 105.13 736.241 104.67L736.521 103.918L733.883 96.6035H735.263L737.109 102.147Z" fill="white"/>
<path d="M647.852 121.773C647.342 121.561 646.757 121.803 646.545 122.313C646.334 122.824 646.576 123.409 647.086 123.62L647.852 121.773ZM644.38 120.914C644.591 121.424 645.176 121.666 645.687 121.455C646.197 121.243 646.439 120.658 646.227 120.148L644.38 120.914ZM646 114C646 113.448 645.552 113 645 113C644.448 113 644 113.448 644 114H646ZM644 104C644 104.552 644.448 105 645 105C645.552 105 646 104.552 646 104H644ZM646 94C646 93.4477 645.552 93 645 93C644.448 93 644 93.4477 644 94H646ZM644 84C644 84.5523 644.448 85 645 85C645.552 85 646 84.5523 646 84H644ZM646.227 77.8519C646.439 77.3417 646.197 76.7567 645.687 76.5451C645.176 76.3336 644.591 76.5756 644.38 77.0858L646.227 77.8519ZM647.086 74.3798C646.576 74.5914 646.334 75.1764 646.545 75.6866C646.757 76.1967 647.342 76.4388 647.852 76.2272L647.086 74.3798ZM654.333 76C654.886 76 655.333 75.5523 655.333 75C655.333 74.4477 654.886 74 654.333 74V76ZM665 74C664.448 74 664 74.4477 664 75C664 75.5523 664.448 76 665 76V74ZM675.667 76C676.219 76 676.667 75.5523 676.667 75C676.667 74.4477 676.219 74 675.667 74V76ZM686.333 74C685.781 74 685.333 74.4477 685.333 75C685.333 75.5523 685.781 76 686.333 76V74ZM697 76C697.552 76 698 75.5523 698 75C698 74.4477 697.552 74 697 74V76ZM707.667 74C707.114 74 706.667 74.4477 706.667 75C706.667 75.5523 707.114 76 707.667 76V74ZM718.333 76C718.886 76 719.333 75.5523 719.333 75C719.333 74.4477 718.886 74 718.333 74V76ZM729 74C728.448 74 728 74.4477 728 75C728 75.5523 728.448 76 729 76V74ZM739.667 76C740.219 76 740.667 75.5523 740.667 75C740.667 74.4477 740.219 74 739.667 74V76ZM750.333 74C749.781 74 749.333 74.4477 749.333 75C749.333 75.5523 749.781 76 750.333 76V74ZM761 76C761.552 76 762 75.5523 762 75C762 74.4477 761.552 74 761 74V76ZM771.667 74C771.114 74 770.667 74.4477 770.667 75C770.667 75.5523 771.114 76 771.667 76V74ZM778.148 76.2272C778.658 76.4388 779.243 76.1967 779.455 75.6866C779.666 75.1764 779.424 74.5914 778.914 74.3798L778.148 76.2272ZM781.62 77.0858C781.409 76.5756 780.824 76.3336 780.313 76.5451C779.803 76.7567 779.561 77.3417 779.773 77.8519L781.62 77.0858ZM780 84C780 84.5523 780.448 85 781 85C781.552 85 782 84.5523 782 84H780ZM782 94C782 93.4477 781.552 93 781 93C780.448 93 780 93.4477 780 94H782ZM780 104C780 104.552 780.448 105 781 105C781.552 105 782 104.552 782 104H780ZM782 114C782 113.448 781.552 113 781 113C780.448 113 780 113.448 780 114H782ZM779.773 120.148C779.561 120.658 779.803 121.243 780.313 121.455C780.824 121.666 781.409 121.424 781.62 120.914L779.773 120.148ZM778.914 123.62C779.424 123.409 779.666 122.824 779.455 122.313C779.243 121.803 778.658 121.561 778.148 121.773L778.914 123.62ZM771.667 122C771.114 122 770.667 122.448 770.667 123C770.667 123.552 771.114 124 771.667 124V122ZM761 124C761.552 124 762 123.552 762 123C762 122.448 761.552 122 761 122V124ZM750.333 122C749.781 122 749.333 122.448 749.333 123C749.333 123.552 749.781 124 750.333 124V122ZM739.667 124C740.219 124 740.667 123.552 740.667 123C740.667 122.448 740.219 122 739.667 122V124ZM729 122C728.448 122 728 122.448 728 123C728 123.552 728.448 124 729 124V122ZM718.333 124C718.886 124 719.333 123.552 719.333 123C719.333 122.448 718.886 122 718.333 122V124ZM707.667 122C707.114 122 706.667 122.448 706.667 123C706.667 123.552 707.114 124 707.667 124V122ZM697 124C697.552 124 698 123.552 698 123C698 122.448 697.552 122 697 122V124ZM686.333 122C685.781 122 685.333 122.448 685.333 123C685.333 123.552 685.781 124 686.333 124V122ZM675.667 124C676.219 124 676.667 123.552 676.667 123C676.667 122.448 676.219 122 675.667 122V124ZM665 122C664.448 122 664 122.448 664 123C664 123.552 664.448 124 665 124V122ZM654.333 124C654.886 124 655.333 123.552 655.333 123C655.333 122.448 654.886 122 654.333 122V124ZM649 122C648.591 122 648.204 121.919 647.852 121.773L647.086 123.62C647.677 123.865 648.324 124 649 124V122ZM646.227 120.148C646.081 119.796 646 119.409 646 119H644C644 119.676 644.135 120.323 644.38 120.914L646.227 120.148ZM646 119V114H644V119H646ZM646 104V94H644V104H646ZM646 84V79H644V84H646ZM646 79C646 78.5914 646.081 78.2042 646.227 77.8519L644.38 77.0858C644.135 77.6767 644 78.3239 644 79H646ZM647.852 76.2272C648.204 76.0811 648.591 76 649 76V74C648.324 74 647.677 74.1347 647.086 74.3798L647.852 76.2272ZM649 76H654.333V74H649V76ZM665 76H675.667V74H665V76ZM686.333 76H697V74H686.333V76ZM707.667 76H718.333V74H707.667V76ZM729 76H739.667V74H729V76ZM750.333 76H761V74H750.333V76ZM771.667 76H777V74H771.667V76ZM777 76C777.409 76 777.796 76.0811 778.148 76.2272L778.914 74.3798C778.323 74.1347 777.676 74 777 74V76ZM779.773 77.8519C779.919 78.2042 780 78.5914 780 79H782C782 78.3239 781.865 77.6767 781.62 77.0858L779.773 77.8519ZM780 79V84H782V79H780ZM780 94V104H782V94H780ZM780 114V119H782V114H780ZM780 119C780 119.409 779.919 119.796 779.773 120.148L781.62 120.914C781.865 120.323 782 119.676 782 119H780ZM778.148 121.773C777.796 121.919 777.409 122 777 122V124C777.676 124 778.323 123.865 778.914 123.62L778.148 121.773ZM777 122H771.667V124H777V122ZM761 122H750.333V124H761V122ZM739.667 122H729V124H739.667V122ZM718.333 122H707.667V124H718.333V122ZM697 122H686.333V124H697V122ZM675.667 122H665V124H675.667V122ZM654.333 122H649V124H654.333V122Z" fill="white"/>
<line x1="403.5" y1="133" x2="403.5" y2="146" stroke="white" stroke-width="2" stroke-linecap="square"/>
<rect x="329" y="147" width="147" height="412" rx="4" fill="#636363"/>
<path d="M390.893 166.842C390.77 167.895 390.381 168.708 389.724 169.282C389.073 169.852 388.205 170.137 387.12 170.137C385.944 170.137 385.001 169.715 384.29 168.872C383.583 168.029 383.23 166.901 383.23 165.488V164.531C383.23 163.606 383.394 162.793 383.722 162.091C384.055 161.389 384.525 160.851 385.131 160.478C385.737 160.099 386.439 159.91 387.236 159.91C388.293 159.91 389.141 160.206 389.779 160.799C390.417 161.387 390.789 162.202 390.893 163.246H389.574C389.46 162.453 389.212 161.879 388.829 161.523C388.451 161.168 387.92 160.99 387.236 160.99C386.398 160.99 385.739 161.3 385.261 161.92C384.787 162.54 384.55 163.422 384.55 164.565V165.529C384.55 166.609 384.775 167.468 385.226 168.106C385.678 168.744 386.309 169.063 387.12 169.063C387.849 169.063 388.407 168.899 388.795 168.571C389.187 168.239 389.446 167.662 389.574 166.842H390.893ZM398.337 167.402H394.167L393.231 170H391.877L395.678 160.047H396.827L400.634 170H399.287L398.337 167.402ZM394.564 166.322H397.948L396.252 161.667L394.564 166.322ZM409.773 170H408.454L403.443 162.33V170H402.124V160.047H403.443L408.468 167.751V160.047H409.773V170ZM419.705 170H418.434V161.571L415.884 162.508V161.359L419.507 159.999H419.705V170Z" fill="white"/>
<path d="M396.954 198.057H393.256V201.08H397.551V202H392.131V193.469H397.493V194.395H393.256V197.137H396.954V198.057ZM405.377 199.293C405.271 200.195 404.938 200.893 404.375 201.385C403.816 201.873 403.072 202.117 402.143 202.117C401.135 202.117 400.326 201.756 399.717 201.033C399.111 200.311 398.809 199.344 398.809 198.133V197.312C398.809 196.52 398.949 195.822 399.23 195.221C399.516 194.619 399.918 194.158 400.438 193.838C400.957 193.514 401.559 193.352 402.242 193.352C403.148 193.352 403.875 193.605 404.422 194.113C404.969 194.617 405.287 195.316 405.377 196.211H404.246C404.148 195.531 403.936 195.039 403.607 194.734C403.283 194.43 402.828 194.277 402.242 194.277C401.523 194.277 400.959 194.543 400.549 195.074C400.143 195.605 399.939 196.361 399.939 197.342V198.168C399.939 199.094 400.133 199.83 400.52 200.377C400.906 200.924 401.447 201.197 402.143 201.197C402.768 201.197 403.246 201.057 403.578 200.775C403.914 200.49 404.137 199.996 404.246 199.293H405.377ZM413.074 193.469V199.27C413.07 200.074 412.816 200.732 412.312 201.244C411.812 201.756 411.132 202.043 410.273 202.105L409.974 202.117C409.041 202.117 408.296 201.865 407.742 201.361C407.187 200.857 406.906 200.164 406.898 199.281V193.469H408.011V199.246C408.011 199.863 408.181 200.344 408.521 200.688C408.861 201.027 409.345 201.197 409.974 201.197C410.611 201.197 411.097 201.027 411.433 200.688C411.773 200.348 411.943 199.869 411.943 199.252V193.469H413.074Z" fill="white"/>
<path d="M338.5 181H466.5V177H338.5V181ZM468.5 183V212H472.5V183H468.5ZM466.5 214H338.5V218H466.5V214ZM336.5 212V183H332.5V212H336.5ZM338.5 214C337.395 214 336.5 213.105 336.5 212H332.5C332.5 215.314 335.186 218 338.5 218V214ZM468.5 212C468.5 213.105 467.605 214 466.5 214V218C469.814 218 472.5 215.314 472.5 212H468.5ZM466.5 181C467.605 181 468.5 181.895 468.5 183H472.5C472.5 179.686 469.814 177 466.5 177V181ZM338.5 177C335.186 177 332.5 179.686 332.5 183H336.5C336.5 181.895 337.395 181 338.5 181V177Z" fill="#4CAF50"/>
<path d="M396.954 239.057H393.256V242.08H397.551V243H392.131V234.469H397.493V235.395H393.256V238.137H396.954V239.057ZM405.377 240.293C405.271 241.195 404.938 241.893 404.375 242.385C403.816 242.873 403.072 243.117 402.143 243.117C401.135 243.117 400.326 242.756 399.717 242.033C399.111 241.311 398.809 240.344 398.809 239.133V238.312C398.809 237.52 398.949 236.822 399.23 236.221C399.516 235.619 399.918 235.158 400.438 234.838C400.957 234.514 401.559 234.352 402.242 234.352C403.148 234.352 403.875 234.605 404.422 235.113C404.969 235.617 405.287 236.316 405.377 237.211H404.246C404.148 236.531 403.936 236.039 403.607 235.734C403.283 235.43 402.828 235.277 402.242 235.277C401.523 235.277 400.959 235.543 400.549 236.074C400.143 236.605 399.939 237.361 399.939 238.342V239.168C399.939 240.094 400.133 240.83 400.52 241.377C400.906 241.924 401.447 242.197 402.143 242.197C402.768 242.197 403.246 242.057 403.578 241.775C403.914 241.49 404.137 240.996 404.246 240.293H405.377ZM413.074 234.469V240.27C413.07 241.074 412.816 241.732 412.312 242.244C411.812 242.756 411.132 243.043 410.273 243.105L409.974 243.117C409.041 243.117 408.296 242.865 407.742 242.361C407.187 241.857 406.906 241.164 406.898 240.281V234.469H408.011V240.246C408.011 240.863 408.181 241.344 408.521 241.688C408.861 242.027 409.345 242.197 409.974 242.197C410.611 242.197 411.097 242.027 411.433 241.688C411.773 241.348 411.943 240.869 411.943 240.252V234.469H413.074Z" fill="white"/>
<path d="M338.5 222H466.5V218H338.5V222ZM468.5 224V253H472.5V224H468.5ZM466.5 255H338.5V259H466.5V255ZM336.5 253V224H332.5V253H336.5ZM338.5 255C337.395 255 336.5 254.105 336.5 253H332.5C332.5 256.314 335.186 259 338.5 259V255ZM468.5 253C468.5 254.105 467.605 255 466.5 255V259C469.814 259 472.5 256.314 472.5 253H468.5ZM466.5 222C467.605 222 468.5 222.895 468.5 224H472.5C472.5 220.686 469.814 218 466.5 218V222ZM338.5 218C335.186 218 332.5 220.686 332.5 224H336.5C336.5 222.895 337.395 222 338.5 222V218Z" fill="#4CAF50"/>
<path d="M396.954 280.057H393.256V283.08H397.551V284H392.131V275.469H397.493V276.395H393.256V279.137H396.954V280.057ZM405.377 281.293C405.271 282.195 404.938 282.893 404.375 283.385C403.816 283.873 403.072 284.117 402.143 284.117C401.135 284.117 400.326 283.756 399.717 283.033C399.111 282.311 398.809 281.344 398.809 280.133V279.312C398.809 278.52 398.949 277.822 399.23 277.221C399.516 276.619 399.918 276.158 400.438 275.838C400.957 275.514 401.559 275.352 402.242 275.352C403.148 275.352 403.875 275.605 404.422 276.113C404.969 276.617 405.287 277.316 405.377 278.211H404.246C404.148 277.531 403.936 277.039 403.607 276.734C403.283 276.43 402.828 276.277 402.242 276.277C401.523 276.277 400.959 276.543 400.549 277.074C400.143 277.605 399.939 278.361 399.939 279.342V280.168C399.939 281.094 400.133 281.83 400.52 282.377C400.906 282.924 401.447 283.197 402.143 283.197C402.768 283.197 403.246 283.057 403.578 282.775C403.914 282.49 404.137 281.996 404.246 281.293H405.377ZM413.074 275.469V281.27C413.07 282.074 412.816 282.732 412.312 283.244C411.812 283.756 411.132 284.043 410.273 284.105L409.974 284.117C409.041 284.117 408.296 283.865 407.742 283.361C407.187 282.857 406.906 282.164 406.898 281.281V275.469H408.011V281.246C408.011 281.863 408.181 282.344 408.521 282.688C408.861 283.027 409.345 283.197 409.974 283.197C410.611 283.197 411.097 283.027 411.433 282.688C411.773 282.348 411.943 281.869 411.943 281.252V275.469H413.074Z" fill="white"/>
<path d="M338.5 263H466.5V259H338.5V263ZM468.5 265V294H472.5V265H468.5ZM466.5 296H338.5V300H466.5V296ZM336.5 294V265H332.5V294H336.5ZM338.5 296C337.395 296 336.5 295.105 336.5 294H332.5C332.5 297.314 335.186 300 338.5 300V296ZM468.5 294C468.5 295.105 467.605 296 466.5 296V300C469.814 300 472.5 297.314 472.5 294H468.5ZM466.5 263C467.605 263 468.5 263.895 468.5 265H472.5C472.5 261.686 469.814 259 466.5 259V263ZM338.5 259C335.186 259 332.5 261.686 332.5 265H336.5C336.5 263.895 337.395 263 338.5 263V259Z" fill="#4CAF50"/>
<path d="M396.954 321.057H393.256V324.08H397.551V325H392.131V316.469H397.493V317.395H393.256V320.137H396.954V321.057ZM405.377 322.293C405.271 323.195 404.938 323.893 404.375 324.385C403.816 324.873 403.072 325.117 402.143 325.117C401.135 325.117 400.326 324.756 399.717 324.033C399.111 323.311 398.809 322.344 398.809 321.133V320.312C398.809 319.52 398.949 318.822 399.23 318.221C399.516 317.619 399.918 317.158 400.438 316.838C400.957 316.514 401.559 316.352 402.242 316.352C403.148 316.352 403.875 316.605 404.422 317.113C404.969 317.617 405.287 318.316 405.377 319.211H404.246C404.148 318.531 403.936 318.039 403.607 317.734C403.283 317.43 402.828 317.277 402.242 317.277C401.523 317.277 400.959 317.543 400.549 318.074C400.143 318.605 399.939 319.361 399.939 320.342V321.168C399.939 322.094 400.133 322.83 400.52 323.377C400.906 323.924 401.447 324.197 402.143 324.197C402.768 324.197 403.246 324.057 403.578 323.775C403.914 323.49 404.137 322.996 404.246 322.293H405.377ZM413.074 316.469V322.27C413.07 323.074 412.816 323.732 412.312 324.244C411.812 324.756 411.132 325.043 410.273 325.105L409.974 325.117C409.041 325.117 408.296 324.865 407.742 324.361C407.187 323.857 406.906 323.164 406.898 322.281V316.469H408.011V322.246C408.011 322.863 408.181 323.344 408.521 323.688C408.861 324.027 409.345 324.197 409.974 324.197C410.611 324.197 411.097 324.027 411.433 323.688C411.773 323.348 411.943 322.869 411.943 322.252V316.469H413.074Z" fill="white"/>
<path d="M338.5 304H466.5V300H338.5V304ZM468.5 306V335H472.5V306H468.5ZM466.5 337H338.5V341H466.5V337ZM336.5 335V306H332.5V335H336.5ZM338.5 337C337.395 337 336.5 336.105 336.5 335H332.5C332.5 338.314 335.186 341 338.5 341V337ZM468.5 335C468.5 336.105 467.605 337 466.5 337V341C469.814 341 472.5 338.314 472.5 335H468.5ZM466.5 304C467.605 304 468.5 304.895 468.5 306H472.5C472.5 302.686 469.814 300 466.5 300V304ZM338.5 300C335.186 300 332.5 302.686 332.5 306H336.5C336.5 304.895 337.395 304 338.5 304V300Z" fill="#4CAF50"/>
<path d="M396.954 362.057H393.256V365.08H397.551V366H392.131V357.469H397.493V358.395H393.256V361.137H396.954V362.057ZM405.377 363.293C405.271 364.195 404.938 364.893 404.375 365.385C403.816 365.873 403.072 366.117 402.143 366.117C401.135 366.117 400.326 365.756 399.717 365.033C399.111 364.311 398.809 363.344 398.809 362.133V361.312C398.809 360.52 398.949 359.822 399.23 359.221C399.516 358.619 399.918 358.158 400.438 357.838C400.957 357.514 401.559 357.352 402.242 357.352C403.148 357.352 403.875 357.605 404.422 358.113C404.969 358.617 405.287 359.316 405.377 360.211H404.246C404.148 359.531 403.936 359.039 403.607 358.734C403.283 358.43 402.828 358.277 402.242 358.277C401.523 358.277 400.959 358.543 400.549 359.074C400.143 359.605 399.939 360.361 399.939 361.342V362.168C399.939 363.094 400.133 363.83 400.52 364.377C400.906 364.924 401.447 365.197 402.143 365.197C402.768 365.197 403.246 365.057 403.578 364.775C403.914 364.49 404.137 363.996 404.246 363.293H405.377ZM413.074 357.469V363.27C413.07 364.074 412.816 364.732 412.312 365.244C411.812 365.756 411.132 366.043 410.273 366.105L409.974 366.117C409.041 366.117 408.296 365.865 407.742 365.361C407.187 364.857 406.906 364.164 406.898 363.281V357.469H408.011V363.246C408.011 363.863 408.181 364.344 408.521 364.688C408.861 365.027 409.345 365.197 409.974 365.197C410.611 365.197 411.097 365.027 411.433 364.688C411.773 364.348 411.943 363.869 411.943 363.252V357.469H413.074Z" fill="white"/>
<path d="M338.5 345H466.5V341H338.5V345ZM468.5 347V376H472.5V347H468.5ZM466.5 378H338.5V382H466.5V378ZM336.5 376V347H332.5V376H336.5ZM338.5 378C337.395 378 336.5 377.105 336.5 376H332.5C332.5 379.314 335.186 382 338.5 382V378ZM468.5 376C468.5 377.105 467.605 378 466.5 378V382C469.814 382 472.5 379.314 472.5 376H468.5ZM466.5 345C467.605 345 468.5 345.895 468.5 347H472.5C472.5 343.686 469.814 341 466.5 341V345ZM338.5 341C335.186 341 332.5 343.686 332.5 347H336.5C336.5 345.895 337.395 345 338.5 345V341Z" fill="#4CAF50"/>
<path d="M396.954 403.057H393.256V406.08H397.551V407H392.131V398.469H397.493V399.395H393.256V402.137H396.954V403.057ZM405.377 404.293C405.271 405.195 404.938 405.893 404.375 406.385C403.816 406.873 403.072 407.117 402.143 407.117C401.135 407.117 400.326 406.756 399.717 406.033C399.111 405.311 398.809 404.344 398.809 403.133V402.312C398.809 401.52 398.949 400.822 399.23 400.221C399.516 399.619 399.918 399.158 400.438 398.838C400.957 398.514 401.559 398.352 402.242 398.352C403.148 398.352 403.875 398.605 404.422 399.113C404.969 399.617 405.287 400.316 405.377 401.211H404.246C404.148 400.531 403.936 400.039 403.607 399.734C403.283 399.43 402.828 399.277 402.242 399.277C401.523 399.277 400.959 399.543 400.549 400.074C400.143 400.605 399.939 401.361 399.939 402.342V403.168C399.939 404.094 400.133 404.83 400.52 405.377C400.906 405.924 401.447 406.197 402.143 406.197C402.768 406.197 403.246 406.057 403.578 405.775C403.914 405.49 404.137 404.996 404.246 404.293H405.377ZM413.074 398.469V404.27C413.07 405.074 412.816 405.732 412.312 406.244C411.812 406.756 411.132 407.043 410.273 407.105L409.974 407.117C409.041 407.117 408.296 406.865 407.742 406.361C407.187 405.857 406.906 405.164 406.898 404.281V398.469H408.011V404.246C408.011 404.863 408.181 405.344 408.521 405.688C408.861 406.027 409.345 406.197 409.974 406.197C410.611 406.197 411.097 406.027 411.433 405.688C411.773 405.348 411.943 404.869 411.943 404.252V398.469H413.074Z" fill="white"/>
<path d="M338.5 386H466.5V382H338.5V386ZM468.5 388V417H472.5V388H468.5ZM466.5 419H338.5V423H466.5V419ZM336.5 417V388H332.5V417H336.5ZM338.5 419C337.395 419 336.5 418.105 336.5 417H332.5C332.5 420.314 335.186 423 338.5 423V419ZM468.5 417C468.5 418.105 467.605 419 466.5 419V423C469.814 423 472.5 420.314 472.5 417H468.5ZM466.5 386C467.605 386 468.5 386.895 468.5 388H472.5C472.5 384.686 469.814 382 466.5 382V386ZM338.5 382C335.186 382 332.5 384.686 332.5 388H336.5C336.5 386.895 337.395 386 338.5 386V382Z" fill="#4CAF50"/>
<path d="M396.954 444.057H393.256V447.08H397.551V448H392.131V439.469H397.493V440.395H393.256V443.137H396.954V444.057ZM405.377 445.293C405.271 446.195 404.938 446.893 404.375 447.385C403.816 447.873 403.072 448.117 402.143 448.117C401.135 448.117 400.326 447.756 399.717 447.033C399.111 446.311 398.809 445.344 398.809 444.133V443.312C398.809 442.52 398.949 441.822 399.23 441.221C399.516 440.619 399.918 440.158 400.438 439.838C400.957 439.514 401.559 439.352 402.242 439.352C403.148 439.352 403.875 439.605 404.422 440.113C404.969 440.617 405.287 441.316 405.377 442.211H404.246C404.148 441.531 403.936 441.039 403.607 440.734C403.283 440.43 402.828 440.277 402.242 440.277C401.523 440.277 400.959 440.543 400.549 441.074C400.143 441.605 399.939 442.361 399.939 443.342V444.168C399.939 445.094 400.133 445.83 400.52 446.377C400.906 446.924 401.447 447.197 402.143 447.197C402.768 447.197 403.246 447.057 403.578 446.775C403.914 446.49 404.137 445.996 404.246 445.293H405.377ZM413.074 439.469V445.27C413.07 446.074 412.816 446.732 412.312 447.244C411.812 447.756 411.132 448.043 410.273 448.105L409.974 448.117C409.041 448.117 408.296 447.865 407.742 447.361C407.187 446.857 406.906 446.164 406.898 445.281V439.469H408.011V445.246C408.011 445.863 408.181 446.344 408.521 446.688C408.861 447.027 409.345 447.197 409.974 447.197C410.611 447.197 411.097 447.027 411.433 446.688C411.773 446.348 411.943 445.869 411.943 445.252V439.469H413.074Z" fill="white"/>
<path d="M338.5 427H466.5V423H338.5V427ZM468.5 429V458H472.5V429H468.5ZM466.5 460H338.5V464H466.5V460ZM336.5 458V429H332.5V458H336.5ZM338.5 460C337.395 460 336.5 459.105 336.5 458H332.5C332.5 461.314 335.186 464 338.5 464V460ZM468.5 458C468.5 459.105 467.605 460 466.5 460V464C469.814 464 472.5 461.314 472.5 458H468.5ZM466.5 427C467.605 427 468.5 427.895 468.5 429H472.5C472.5 425.686 469.814 423 466.5 423V427ZM338.5 423C335.186 423 332.5 425.686 332.5 429H336.5C336.5 427.895 337.395 427 338.5 427V423Z" fill="#4CAF50"/>
<path d="M396.954 485.057H393.256V488.08H397.551V489H392.131V480.469H397.493V481.395H393.256V484.137H396.954V485.057ZM405.377 486.293C405.271 487.195 404.938 487.893 404.375 488.385C403.816 488.873 403.072 489.117 402.143 489.117C401.135 489.117 400.326 488.756 399.717 488.033C399.111 487.311 398.809 486.344 398.809 485.133V484.312C398.809 483.52 398.949 482.822 399.23 482.221C399.516 481.619 399.918 481.158 400.438 480.838C400.957 480.514 401.559 480.352 402.242 480.352C403.148 480.352 403.875 480.605 404.422 481.113C404.969 481.617 405.287 482.316 405.377 483.211H404.246C404.148 482.531 403.936 482.039 403.607 481.734C403.283 481.43 402.828 481.277 402.242 481.277C401.523 481.277 400.959 481.543 400.549 482.074C400.143 482.605 399.939 483.361 399.939 484.342V485.168C399.939 486.094 400.133 486.83 400.52 487.377C400.906 487.924 401.447 488.197 402.143 488.197C402.768 488.197 403.246 488.057 403.578 487.775C403.914 487.49 404.137 486.996 404.246 486.293H405.377ZM413.074 480.469V486.27C413.07 487.074 412.816 487.732 412.312 488.244C411.812 488.756 411.132 489.043 410.273 489.105L409.974 489.117C409.041 489.117 408.296 488.865 407.742 488.361C407.187 487.857 406.906 487.164 406.898 486.281V480.469H408.011V486.246C408.011 486.863 408.181 487.344 408.521 487.688C408.861 488.027 409.345 488.197 409.974 488.197C410.611 488.197 411.097 488.027 411.433 487.688C411.773 487.348 411.943 486.869 411.943 486.252V480.469H413.074Z" fill="white"/>
<path d="M338.5 468H466.5V464H338.5V468ZM468.5 470V499H472.5V470H468.5ZM466.5 501H338.5V505H466.5V501ZM336.5 499V470H332.5V499H336.5ZM338.5 501C337.395 501 336.5 500.105 336.5 499H332.5C332.5 502.314 335.186 505 338.5 505V501ZM468.5 499C468.5 500.105 467.605 501 466.5 501V505C469.814 505 472.5 502.314 472.5 499H468.5ZM466.5 468C467.605 468 468.5 468.895 468.5 470H472.5C472.5 466.686 469.814 464 466.5 464V468ZM338.5 464C335.186 464 332.5 466.686 332.5 470H336.5C336.5 468.895 337.395 468 338.5 468V464Z" fill="#4CAF50"/>
<path d="M334 511C334 508.791 335.791 507 338 507H467C469.209 507 471 508.791 471 511V547C471 549.209 469.209 551 467 551H338C335.791 551 334 549.209 334 547V511Z" fill="#F44336"/>
<path d="M360.083 531.75H361.916V533.583H360.083V531.75ZM360.083 524.417H361.916V529.917H360.083V524.417ZM360.991 519.833C355.931 519.833 351.833 523.94 351.833 529C351.833 534.06 355.931 538.167 360.991 538.167C366.06 538.167 370.166 534.06 370.166 529C370.166 523.94 366.06 519.833 360.991 519.833ZM361 536.333C356.948 536.333 353.666 533.052 353.666 529C353.666 524.948 356.948 521.667 361 521.667C365.051 521.667 368.333 524.948 368.333 529C368.333 533.052 365.051 536.333 361 536.333Z" fill="white"/>
<path d="M390.781 529.399H386.468V532.927H391.479V534H385.155V524.047H391.41V525.127H386.468V528.326H390.781V529.399ZM400.584 530.842C400.461 531.895 400.071 532.708 399.415 533.282C398.763 533.852 397.895 534.137 396.81 534.137C395.634 534.137 394.691 533.715 393.98 532.872C393.274 532.029 392.921 530.901 392.921 529.488V528.531C392.921 527.606 393.085 526.793 393.413 526.091C393.745 525.389 394.215 524.851 394.821 524.478C395.427 524.099 396.129 523.91 396.926 523.91C397.984 523.91 398.831 524.206 399.469 524.799C400.107 525.387 400.479 526.202 400.584 527.246H399.264C399.15 526.453 398.902 525.879 398.519 525.523C398.141 525.168 397.61 524.99 396.926 524.99C396.088 524.99 395.429 525.3 394.951 525.92C394.477 526.54 394.24 527.422 394.24 528.565V529.529C394.24 530.609 394.465 531.468 394.917 532.106C395.368 532.744 395.999 533.063 396.81 533.063C397.539 533.063 398.098 532.899 398.485 532.571C398.877 532.239 399.137 531.662 399.264 530.842H400.584ZM409.538 524.047V530.814C409.534 531.753 409.237 532.521 408.65 533.118C408.066 533.715 407.273 534.05 406.271 534.123L405.922 534.137C404.833 534.137 403.965 533.843 403.318 533.255C402.67 532.667 402.342 531.858 402.333 530.828V524.047H403.632V530.787C403.632 531.507 403.83 532.068 404.227 532.469C404.623 532.865 405.188 533.063 405.922 533.063C406.665 533.063 407.232 532.865 407.624 532.469C408.021 532.072 408.219 531.514 408.219 530.794V524.047H409.538Z" fill="white"/>
<line x1="610.5" y1="133" x2="610.5" y2="146" stroke="white" stroke-width="2" stroke-linecap="square"/>
<rect x="536" y="147" width="147" height="405" rx="4" fill="#636363"/>
<path d="M597.893 166.842C597.77 167.895 597.381 168.708 596.724 169.282C596.073 169.852 595.205 170.137 594.12 170.137C592.944 170.137 592.001 169.715 591.29 168.872C590.583 168.029 590.23 166.901 590.23 165.488V164.531C590.23 163.606 590.394 162.793 590.722 162.091C591.055 161.389 591.525 160.851 592.131 160.478C592.737 160.099 593.439 159.91 594.236 159.91C595.293 159.91 596.141 160.206 596.779 160.799C597.417 161.387 597.789 162.202 597.893 163.246H596.574C596.46 162.453 596.212 161.879 595.829 161.523C595.451 161.168 594.92 160.99 594.236 160.99C593.398 160.99 592.739 161.3 592.261 161.92C591.787 162.54 591.55 163.422 591.55 164.565V165.529C591.55 166.609 591.775 167.468 592.226 168.106C592.678 168.744 593.309 169.063 594.12 169.063C594.849 169.063 595.407 168.899 595.795 168.571C596.187 168.239 596.446 167.662 596.574 166.842H597.893ZM605.337 167.402H601.167L600.231 170H598.877L602.678 160.047H603.827L607.634 170H606.287L605.337 167.402ZM601.564 166.322H604.948L603.252 161.667L601.564 166.322ZM616.773 170H615.454L610.443 162.33V170H609.124V160.047H610.443L615.468 167.751V160.047H616.773V170ZM629.071 170H622.549V169.091L625.994 165.263C626.505 164.684 626.856 164.215 627.047 163.854C627.243 163.49 627.341 163.114 627.341 162.727C627.341 162.207 627.184 161.781 626.869 161.448C626.555 161.116 626.136 160.949 625.612 160.949C624.983 160.949 624.493 161.129 624.142 161.489C623.795 161.845 623.622 162.341 623.622 162.979H622.358C622.358 162.063 622.652 161.323 623.239 160.758C623.832 160.193 624.623 159.91 625.612 159.91C626.537 159.91 627.268 160.154 627.806 160.642C628.344 161.125 628.613 161.77 628.613 162.576C628.613 163.556 627.988 164.723 626.739 166.076L624.073 168.968H629.071V170Z" fill="white"/>
<path d="M603.954 198.057H600.256V201.08H604.551V202H599.131V193.469H604.493V194.395H600.256V197.137H603.954V198.057ZM612.377 199.293C612.271 200.195 611.938 200.893 611.375 201.385C610.816 201.873 610.072 202.117 609.143 202.117C608.135 202.117 607.326 201.756 606.717 201.033C606.111 200.311 605.809 199.344 605.809 198.133V197.312C605.809 196.52 605.949 195.822 606.23 195.221C606.516 194.619 606.918 194.158 607.438 193.838C607.957 193.514 608.559 193.352 609.242 193.352C610.148 193.352 610.875 193.605 611.422 194.113C611.969 194.617 612.287 195.316 612.377 196.211H611.246C611.148 195.531 610.936 195.039 610.607 194.734C610.283 194.43 609.828 194.277 609.242 194.277C608.523 194.277 607.959 194.543 607.549 195.074C607.143 195.605 606.939 196.361 606.939 197.342V198.168C606.939 199.094 607.133 199.83 607.52 200.377C607.906 200.924 608.447 201.197 609.143 201.197C609.768 201.197 610.246 201.057 610.578 200.775C610.914 200.49 611.137 199.996 611.246 199.293H612.377ZM620.074 193.469V199.27C620.07 200.074 619.816 200.732 619.312 201.244C618.812 201.756 618.132 202.043 617.273 202.105L616.974 202.117C616.041 202.117 615.296 201.865 614.742 201.361C614.187 200.857 613.906 200.164 613.898 199.281V193.469H615.011V199.246C615.011 199.863 615.181 200.344 615.521 200.688C615.861 201.027 616.345 201.197 616.974 201.197C617.611 201.197 618.097 201.027 618.433 200.688C618.773 200.348 618.943 199.869 618.943 199.252V193.469H620.074Z" fill="white"/>
<path d="M545.5 181H673.5V177H545.5V181ZM675.5 183V212H679.5V183H675.5ZM673.5 214H545.5V218H673.5V214ZM543.5 212V183H539.5V212H543.5ZM545.5 214C544.395 214 543.5 213.105 543.5 212H539.5C539.5 215.314 542.186 218 545.5 218V214ZM675.5 212C675.5 213.105 674.605 214 673.5 214V218C676.814 218 679.5 215.314 679.5 212H675.5ZM673.5 181C674.605 181 675.5 181.895 675.5 183H679.5C679.5 179.686 676.814 177 673.5 177V181ZM545.5 177C542.186 177 539.5 179.686 539.5 183H543.5C543.5 181.895 544.395 181 545.5 181V177Z" fill="#4CAF50"/>
<path d="M603.954 239.057H600.256V242.08H604.551V243H599.131V234.469H604.493V235.395H600.256V238.137H603.954V239.057ZM612.377 240.293C612.271 241.195 611.938 241.893 611.375 242.385C610.816 242.873 610.072 243.117 609.143 243.117C608.135 243.117 607.326 242.756 606.717 242.033C606.111 241.311 605.809 240.344 605.809 239.133V238.312C605.809 237.52 605.949 236.822 606.23 236.221C606.516 235.619 606.918 235.158 607.438 234.838C607.957 234.514 608.559 234.352 609.242 234.352C610.148 234.352 610.875 234.605 611.422 235.113C611.969 235.617 612.287 236.316 612.377 237.211H611.246C611.148 236.531 610.936 236.039 610.607 235.734C610.283 235.43 609.828 235.277 609.242 235.277C608.523 235.277 607.959 235.543 607.549 236.074C607.143 236.605 606.939 237.361 606.939 238.342V239.168C606.939 240.094 607.133 240.83 607.52 241.377C607.906 241.924 608.447 242.197 609.143 242.197C609.768 242.197 610.246 242.057 610.578 241.775C610.914 241.49 611.137 240.996 611.246 240.293H612.377ZM620.074 234.469V240.27C620.07 241.074 619.816 241.732 619.312 242.244C618.812 242.756 618.132 243.043 617.273 243.105L616.974 243.117C616.041 243.117 615.296 242.865 614.742 242.361C614.187 241.857 613.906 241.164 613.898 240.281V234.469H615.011V240.246C615.011 240.863 615.181 241.344 615.521 241.688C615.861 242.027 616.345 242.197 616.974 242.197C617.611 242.197 618.097 242.027 618.433 241.688C618.773 241.348 618.943 240.869 618.943 240.252V234.469H620.074Z" fill="white"/>
<path d="M545.5 222H673.5V218H545.5V222ZM675.5 224V253H679.5V224H675.5ZM673.5 255H545.5V259H673.5V255ZM543.5 253V224H539.5V253H543.5ZM545.5 255C544.395 255 543.5 254.105 543.5 253H539.5C539.5 256.314 542.186 259 545.5 259V255ZM675.5 253C675.5 254.105 674.605 255 673.5 255V259C676.814 259 679.5 256.314 679.5 253H675.5ZM673.5 222C674.605 222 675.5 222.895 675.5 224H679.5C679.5 220.686 676.814 218 673.5 218V222ZM545.5 218C542.186 218 539.5 220.686 539.5 224H543.5C543.5 222.895 544.395 222 545.5 222V218Z" fill="#4CAF50"/>
<path d="M603.954 280.057H600.256V283.08H604.551V284H599.131V275.469H604.493V276.395H600.256V279.137H603.954V280.057ZM612.377 281.293C612.271 282.195 611.938 282.893 611.375 283.385C610.816 283.873 610.072 284.117 609.143 284.117C608.135 284.117 607.326 283.756 606.717 283.033C606.111 282.311 605.809 281.344 605.809 280.133V279.312C605.809 278.52 605.949 277.822 606.23 277.221C606.516 276.619 606.918 276.158 607.438 275.838C607.957 275.514 608.559 275.352 609.242 275.352C610.148 275.352 610.875 275.605 611.422 276.113C611.969 276.617 612.287 277.316 612.377 278.211H611.246C611.148 277.531 610.936 277.039 610.607 276.734C610.283 276.43 609.828 276.277 609.242 276.277C608.523 276.277 607.959 276.543 607.549 277.074C607.143 277.605 606.939 278.361 606.939 279.342V280.168C606.939 281.094 607.133 281.83 607.52 282.377C607.906 282.924 608.447 283.197 609.143 283.197C609.768 283.197 610.246 283.057 610.578 282.775C610.914 282.49 611.137 281.996 611.246 281.293H612.377ZM620.074 275.469V281.27C620.07 282.074 619.816 282.732 619.312 283.244C618.812 283.756 618.132 284.043 617.273 284.105L616.974 284.117C616.041 284.117 615.296 283.865 614.742 283.361C614.187 282.857 613.906 282.164 613.898 281.281V275.469H615.011V281.246C615.011 281.863 615.181 282.344 615.521 282.688C615.861 283.027 616.345 283.197 616.974 283.197C617.611 283.197 618.097 283.027 618.433 282.688C618.773 282.348 618.943 281.869 618.943 281.252V275.469H620.074Z" fill="white"/>
<path d="M545.5 263H673.5V259H545.5V263ZM675.5 265V294H679.5V265H675.5ZM673.5 296H545.5V300H673.5V296ZM543.5 294V265H539.5V294H543.5ZM545.5 296C544.395 296 543.5 295.105 543.5 294H539.5C539.5 297.314 542.186 300 545.5 300V296ZM675.5 294C675.5 295.105 674.605 296 673.5 296V300C676.814 300 679.5 297.314 679.5 294H675.5ZM673.5 263C674.605 263 675.5 263.895 675.5 265H679.5C679.5 261.686 676.814 259 673.5 259V263ZM545.5 259C542.186 259 539.5 261.686 539.5 265H543.5C543.5 263.895 544.395 263 545.5 263V259Z" fill="#4CAF50"/>
<path d="M603.954 321.057H600.256V324.08H604.551V325H599.131V316.469H604.493V317.395H600.256V320.137H603.954V321.057ZM612.377 322.293C612.271 323.195 611.938 323.893 611.375 324.385C610.816 324.873 610.072 325.117 609.143 325.117C608.135 325.117 607.326 324.756 606.717 324.033C606.111 323.311 605.809 322.344 605.809 321.133V320.312C605.809 319.52 605.949 318.822 606.23 318.221C606.516 317.619 606.918 317.158 607.438 316.838C607.957 316.514 608.559 316.352 609.242 316.352C610.148 316.352 610.875 316.605 611.422 317.113C611.969 317.617 612.287 318.316 612.377 319.211H611.246C611.148 318.531 610.936 318.039 610.607 317.734C610.283 317.43 609.828 317.277 609.242 317.277C608.523 317.277 607.959 317.543 607.549 318.074C607.143 318.605 606.939 319.361 606.939 320.342V321.168C606.939 322.094 607.133 322.83 607.52 323.377C607.906 323.924 608.447 324.197 609.143 324.197C609.768 324.197 610.246 324.057 610.578 323.775C610.914 323.49 611.137 322.996 611.246 322.293H612.377ZM620.074 316.469V322.27C620.07 323.074 619.816 323.732 619.312 324.244C618.812 324.756 618.132 325.043 617.273 325.105L616.974 325.117C616.041 325.117 615.296 324.865 614.742 324.361C614.187 323.857 613.906 323.164 613.898 322.281V316.469H615.011V322.246C615.011 322.863 615.181 323.344 615.521 323.688C615.861 324.027 616.345 324.197 616.974 324.197C617.611 324.197 618.097 324.027 618.433 323.688C618.773 323.348 618.943 322.869 618.943 322.252V316.469H620.074Z" fill="white"/>
<path d="M545.5 304H673.5V300H545.5V304ZM675.5 306V335H679.5V306H675.5ZM673.5 337H545.5V341H673.5V337ZM543.5 335V306H539.5V335H543.5ZM545.5 337C544.395 337 543.5 336.105 543.5 335H539.5C539.5 338.314 542.186 341 545.5 341V337ZM675.5 335C675.5 336.105 674.605 337 673.5 337V341C676.814 341 679.5 338.314 679.5 335H675.5ZM673.5 304C674.605 304 675.5 304.895 675.5 306H679.5C679.5 302.686 676.814 300 673.5 300V304ZM545.5 300C542.186 300 539.5 302.686 539.5 306H543.5C543.5 304.895 544.395 304 545.5 304V300Z" fill="#4CAF50"/>
<path d="M541.5 347C541.5 344.791 543.291 343 545.5 343H673.5C675.709 343 677.5 344.791 677.5 347V376C677.5 378.209 675.709 380 673.5 380H545.5C543.291 380 541.5 378.209 541.5 376V347Z" fill="#FF9800"/>
<path d="M603.954 362.057H600.256V365.08H604.551V366H599.131V357.469H604.493V358.395H600.256V361.137H603.954V362.057ZM612.377 363.293C612.271 364.195 611.938 364.893 611.375 365.385C610.816 365.873 610.072 366.117 609.143 366.117C608.135 366.117 607.326 365.756 606.717 365.033C606.111 364.311 605.809 363.344 605.809 362.133V361.312C605.809 360.52 605.949 359.822 606.23 359.221C606.516 358.619 606.918 358.158 607.438 357.838C607.957 357.514 608.559 357.352 609.242 357.352C610.148 357.352 610.875 357.605 611.422 358.113C611.969 358.617 612.287 359.316 612.377 360.211H611.246C611.148 359.531 610.936 359.039 610.607 358.734C610.283 358.43 609.828 358.277 609.242 358.277C608.523 358.277 607.959 358.543 607.549 359.074C607.143 359.605 606.939 360.361 606.939 361.342V362.168C606.939 363.094 607.133 363.83 607.52 364.377C607.906 364.924 608.447 365.197 609.143 365.197C609.768 365.197 610.246 365.057 610.578 364.775C610.914 364.49 611.137 363.996 611.246 363.293H612.377ZM620.074 357.469V363.27C620.07 364.074 619.816 364.732 619.312 365.244C618.812 365.756 618.132 366.043 617.273 366.105L616.974 366.117C616.041 366.117 615.296 365.865 614.742 365.361C614.187 364.857 613.906 364.164 613.898 363.281V357.469H615.011V363.246C615.011 363.863 615.181 364.344 615.521 364.688C615.861 365.027 616.345 365.197 616.974 365.197C617.611 365.197 618.097 365.027 618.433 364.688C618.773 364.348 618.943 363.869 618.943 363.252V357.469H620.074Z" fill="white"/>
<path d="M603.954 403.057H600.256V406.08H604.551V407H599.131V398.469H604.493V399.395H600.256V402.137H603.954V403.057ZM612.377 404.293C612.271 405.195 611.938 405.893 611.375 406.385C610.816 406.873 610.072 407.117 609.143 407.117C608.135 407.117 607.326 406.756 606.717 406.033C606.111 405.311 605.809 404.344 605.809 403.133V402.312C605.809 401.52 605.949 400.822 606.23 400.221C606.516 399.619 606.918 399.158 607.438 398.838C607.957 398.514 608.559 398.352 609.242 398.352C610.148 398.352 610.875 398.605 611.422 399.113C611.969 399.617 612.287 400.316 612.377 401.211H611.246C611.148 400.531 610.936 400.039 610.607 399.734C610.283 399.43 609.828 399.277 609.242 399.277C608.523 399.277 607.959 399.543 607.549 400.074C607.143 400.605 606.939 401.361 606.939 402.342V403.168C606.939 404.094 607.133 404.83 607.52 405.377C607.906 405.924 608.447 406.197 609.143 406.197C609.768 406.197 610.246 406.057 610.578 405.775C610.914 405.49 611.137 404.996 611.246 404.293H612.377ZM620.074 398.469V404.27C620.07 405.074 619.816 405.732 619.312 406.244C618.812 406.756 618.132 407.043 617.273 407.105L616.974 407.117C616.041 407.117 615.296 406.865 614.742 406.361C614.187 405.857 613.906 405.164 613.898 404.281V398.469H615.011V404.246C615.011 404.863 615.181 405.344 615.521 405.688C615.861 406.027 616.345 406.197 616.974 406.197C617.611 406.197 618.097 406.027 618.433 405.688C618.773 405.348 618.943 404.869 618.943 404.252V398.469H620.074Z" fill="white"/>
<path d="M545.5 386H673.5V382H545.5V386ZM675.5 388V417H679.5V388H675.5ZM673.5 419H545.5V423H673.5V419ZM543.5 417V388H539.5V417H543.5ZM545.5 419C544.395 419 543.5 418.105 543.5 417H539.5C539.5 420.314 542.186 423 545.5 423V419ZM675.5 417C675.5 418.105 674.605 419 673.5 419V423C676.814 423 679.5 420.314 679.5 417H675.5ZM673.5 386C674.605 386 675.5 386.895 675.5 388H679.5C679.5 384.686 676.814 382 673.5 382V386ZM545.5 382C542.186 382 539.5 384.686 539.5 388H543.5C543.5 386.895 544.395 386 545.5 386V382Z" fill="#4CAF50"/>
<path d="M603.954 444.057H600.256V447.08H604.551V448H599.131V439.469H604.493V440.395H600.256V443.137H603.954V444.057ZM612.377 445.293C612.271 446.195 611.938 446.893 611.375 447.385C610.816 447.873 610.072 448.117 609.143 448.117C608.135 448.117 607.326 447.756 606.717 447.033C606.111 446.311 605.809 445.344 605.809 444.133V443.312C605.809 442.52 605.949 441.822 606.23 441.221C606.516 440.619 606.918 440.158 607.438 439.838C607.957 439.514 608.559 439.352 609.242 439.352C610.148 439.352 610.875 439.605 611.422 440.113C611.969 440.617 612.287 441.316 612.377 442.211H611.246C611.148 441.531 610.936 441.039 610.607 440.734C610.283 440.43 609.828 440.277 609.242 440.277C608.523 440.277 607.959 440.543 607.549 441.074C607.143 441.605 606.939 442.361 606.939 443.342V444.168C606.939 445.094 607.133 445.83 607.52 446.377C607.906 446.924 608.447 447.197 609.143 447.197C609.768 447.197 610.246 447.057 610.578 446.775C610.914 446.49 611.137 445.996 611.246 445.293H612.377ZM620.074 439.469V445.27C620.07 446.074 619.816 446.732 619.312 447.244C618.812 447.756 618.132 448.043 617.273 448.105L616.974 448.117C616.041 448.117 615.296 447.865 614.742 447.361C614.187 446.857 613.906 446.164 613.898 445.281V439.469H615.011V445.246C615.011 445.863 615.181 446.344 615.521 446.688C615.861 447.027 616.345 447.197 616.974 447.197C617.611 447.197 618.097 447.027 618.433 446.688C618.773 446.348 618.943 445.869 618.943 445.252V439.469H620.074Z" fill="white"/>
<path d="M545.5 427H673.5V423H545.5V427ZM675.5 429V458H679.5V429H675.5ZM673.5 460H545.5V464H673.5V460ZM543.5 458V429H539.5V458H543.5ZM545.5 460C544.395 460 543.5 459.105 543.5 458H539.5C539.5 461.314 542.186 464 545.5 464V460ZM675.5 458C675.5 459.105 674.605 460 673.5 460V464C676.814 464 679.5 461.314 679.5 458H675.5ZM673.5 427C674.605 427 675.5 427.895 675.5 429H679.5C679.5 425.686 676.814 423 673.5 423V427ZM545.5 423C542.186 423 539.5 425.686 539.5 429H543.5C543.5 427.895 544.395 427 545.5 427V423Z" fill="#4CAF50"/>
<path d="M603.954 485.057H600.256V488.08H604.551V489H599.131V480.469H604.493V481.395H600.256V484.137H603.954V485.057ZM612.377 486.293C612.271 487.195 611.938 487.893 611.375 488.385C610.816 488.873 610.072 489.117 609.143 489.117C608.135 489.117 607.326 488.756 606.717 488.033C606.111 487.311 605.809 486.344 605.809 485.133V484.312C605.809 483.52 605.949 482.822 606.23 482.221C606.516 481.619 606.918 481.158 607.438 480.838C607.957 480.514 608.559 480.352 609.242 480.352C610.148 480.352 610.875 480.605 611.422 481.113C611.969 481.617 612.287 482.316 612.377 483.211H611.246C611.148 482.531 610.936 482.039 610.607 481.734C610.283 481.43 609.828 481.277 609.242 481.277C608.523 481.277 607.959 481.543 607.549 482.074C607.143 482.605 606.939 483.361 606.939 484.342V485.168C606.939 486.094 607.133 486.83 607.52 487.377C607.906 487.924 608.447 488.197 609.143 488.197C609.768 488.197 610.246 488.057 610.578 487.775C610.914 487.49 611.137 486.996 611.246 486.293H612.377ZM620.074 480.469V486.27C620.07 487.074 619.816 487.732 619.312 488.244C618.812 488.756 618.132 489.043 617.273 489.105L616.974 489.117C616.041 489.117 615.296 488.865 614.742 488.361C614.187 487.857 613.906 487.164 613.898 486.281V480.469H615.011V486.246C615.011 486.863 615.181 487.344 615.521 487.688C615.861 488.027 616.345 488.197 616.974 488.197C617.611 488.197 618.097 488.027 618.433 487.688C618.773 487.348 618.943 486.869 618.943 486.252V480.469H620.074Z" fill="white"/>
<path d="M545.5 468H673.5V464H545.5V468ZM675.5 470V499H679.5V470H675.5ZM673.5 501H545.5V505H673.5V501ZM543.5 499V470H539.5V499H543.5ZM545.5 501C544.395 501 543.5 500.105 543.5 499H539.5C539.5 502.314 542.186 505 545.5 505V501ZM675.5 499C675.5 500.105 674.605 501 673.5 501V505C676.814 505 679.5 502.314 679.5 499H675.5ZM673.5 468C674.605 468 675.5 468.895 675.5 470H679.5C679.5 466.686 676.814 464 673.5 464V468ZM545.5 464C542.186 464 539.5 466.686 539.5 470H543.5C543.5 468.895 544.395 468 545.5 468V464Z" fill="#4CAF50"/>
<path d="M603.954 526.057H600.256V529.08H604.551V530H599.131V521.469H604.493V522.395H600.256V525.137H603.954V526.057ZM612.377 527.293C612.271 528.195 611.938 528.893 611.375 529.385C610.816 529.873 610.072 530.117 609.143 530.117C608.135 530.117 607.326 529.756 606.717 529.033C606.111 528.311 605.809 527.344 605.809 526.133V525.312C605.809 524.52 605.949 523.822 606.23 523.221C606.516 522.619 606.918 522.158 607.438 521.838C607.957 521.514 608.559 521.352 609.242 521.352C610.148 521.352 610.875 521.605 611.422 522.113C611.969 522.617 612.287 523.316 612.377 524.211H611.246C611.148 523.531 610.936 523.039 610.607 522.734C610.283 522.43 609.828 522.277 609.242 522.277C608.523 522.277 607.959 522.543 607.549 523.074C607.143 523.605 606.939 524.361 606.939 525.342V526.168C606.939 527.094 607.133 527.83 607.52 528.377C607.906 528.924 608.447 529.197 609.143 529.197C609.768 529.197 610.246 529.057 610.578 528.775C610.914 528.49 611.137 527.996 611.246 527.293H612.377ZM620.074 521.469V527.27C620.07 528.074 619.816 528.732 619.312 529.244C618.812 529.756 618.132 530.043 617.273 530.105L616.974 530.117C616.041 530.117 615.296 529.865 614.742 529.361C614.187 528.857 613.906 528.164 613.898 527.281V521.469H615.011V527.246C615.011 527.863 615.181 528.344 615.521 528.688C615.861 529.027 616.345 529.197 616.974 529.197C617.611 529.197 618.097 529.027 618.433 528.688C618.773 528.348 618.943 527.869 618.943 527.252V521.469H620.074Z" fill="white"/>
<path d="M545.5 509H673.5V505H545.5V509ZM675.5 511V540H679.5V511H675.5ZM673.5 542H545.5V546H673.5V542ZM543.5 540V511H539.5V540H543.5ZM545.5 542C544.395 542 543.5 541.105 543.5 540H539.5C539.5 543.314 542.186 546 545.5 546V542ZM675.5 540C675.5 541.105 674.605 542 673.5 542V546C676.814 546 679.5 543.314 679.5 540H675.5ZM673.5 509C674.605 509 675.5 509.895 675.5 511H679.5C679.5 507.686 676.814 505 673.5 505V509ZM545.5 505C542.186 505 539.5 507.686 539.5 511H543.5C543.5 509.895 544.395 509 545.5 509V505Z" fill="#4CAF50"/>
<line x1="817.5" y1="133" x2="817.5" y2="146" stroke="white" stroke-width="2" stroke-linecap="square"/>
<rect x="743" y="147" width="147" height="405" rx="4" fill="#636363"/>
<path d="M804.893 166.842C804.77 167.895 804.381 168.708 803.724 169.282C803.073 169.852 802.205 170.137 801.12 170.137C799.944 170.137 799.001 169.715 798.29 168.872C797.583 168.029 797.23 166.901 797.23 165.488V164.531C797.23 163.606 797.394 162.793 797.722 162.091C798.055 161.389 798.525 160.851 799.131 160.478C799.737 160.099 800.439 159.91 801.236 159.91C802.293 159.91 803.141 160.206 803.779 160.799C804.417 161.387 804.789 162.202 804.893 163.246H803.574C803.46 162.453 803.212 161.879 802.829 161.523C802.451 161.168 801.92 160.99 801.236 160.99C800.398 160.99 799.739 161.3 799.261 161.92C798.787 162.54 798.55 163.422 798.55 164.565V165.529C798.55 166.609 798.775 167.468 799.226 168.106C799.678 168.744 800.309 169.063 801.12 169.063C801.849 169.063 802.407 168.899 802.795 168.571C803.187 168.239 803.446 167.662 803.574 166.842H804.893ZM812.337 167.402H808.167L807.231 170H805.877L809.678 160.047H810.827L814.634 170H813.287L812.337 167.402ZM808.564 166.322H811.948L810.252 161.667L808.564 166.322ZM823.773 170H822.454L817.443 162.33V170H816.124V160.047H817.443L822.468 167.751V160.047H823.773V170ZM831.388 164.408H832.338C832.935 164.399 833.404 164.242 833.746 163.937C834.088 163.631 834.259 163.219 834.259 162.699C834.259 161.533 833.678 160.949 832.516 160.949C831.969 160.949 831.531 161.106 831.203 161.421C830.88 161.731 830.718 162.143 830.718 162.658H829.453C829.453 161.87 829.74 161.216 830.315 160.696C830.893 160.172 831.627 159.91 832.516 159.91C833.455 159.91 834.191 160.159 834.724 160.655C835.257 161.152 835.524 161.842 835.524 162.727C835.524 163.16 835.382 163.579 835.1 163.984C834.822 164.39 834.441 164.693 833.958 164.894C834.505 165.067 834.927 165.354 835.223 165.755C835.524 166.156 835.674 166.646 835.674 167.225C835.674 168.118 835.382 168.826 834.799 169.351C834.216 169.875 833.457 170.137 832.523 170.137C831.588 170.137 830.827 169.884 830.239 169.378C829.656 168.872 829.364 168.204 829.364 167.375H830.636C830.636 167.899 830.807 168.318 831.149 168.633C831.49 168.947 831.948 169.104 832.523 169.104C833.133 169.104 833.6 168.945 833.924 168.626C834.248 168.307 834.409 167.849 834.409 167.252C834.409 166.673 834.232 166.229 833.876 165.919C833.521 165.609 833.008 165.45 832.338 165.44H831.388V164.408Z" fill="white"/>
<path d="M810.954 198.057H807.256V201.08H811.551V202H806.131V193.469H811.493V194.395H807.256V197.137H810.954V198.057ZM819.377 199.293C819.271 200.195 818.938 200.893 818.375 201.385C817.816 201.873 817.072 202.117 816.143 202.117C815.135 202.117 814.326 201.756 813.717 201.033C813.111 200.311 812.809 199.344 812.809 198.133V197.312C812.809 196.52 812.949 195.822 813.23 195.221C813.516 194.619 813.918 194.158 814.438 193.838C814.957 193.514 815.559 193.352 816.242 193.352C817.148 193.352 817.875 193.605 818.422 194.113C818.969 194.617 819.287 195.316 819.377 196.211H818.246C818.148 195.531 817.936 195.039 817.607 194.734C817.283 194.43 816.828 194.277 816.242 194.277C815.523 194.277 814.959 194.543 814.549 195.074C814.143 195.605 813.939 196.361 813.939 197.342V198.168C813.939 199.094 814.133 199.83 814.52 200.377C814.906 200.924 815.447 201.197 816.143 201.197C816.768 201.197 817.246 201.057 817.578 200.775C817.914 200.49 818.137 199.996 818.246 199.293H819.377ZM827.074 193.469V199.27C827.07 200.074 826.816 200.732 826.312 201.244C825.812 201.756 825.132 202.043 824.273 202.105L823.974 202.117C823.041 202.117 822.296 201.865 821.742 201.361C821.187 200.857 820.906 200.164 820.898 199.281V193.469H822.011V199.246C822.011 199.863 822.181 200.344 822.521 200.688C822.861 201.027 823.345 201.197 823.974 201.197C824.611 201.197 825.097 201.027 825.433 200.688C825.773 200.348 825.943 199.869 825.943 199.252V193.469H827.074Z" fill="white"/>
<path d="M752.5 181H880.5V177H752.5V181ZM882.5 183V212H886.5V183H882.5ZM880.5 214H752.5V218H880.5V214ZM750.5 212V183H746.5V212H750.5ZM752.5 214C751.395 214 750.5 213.105 750.5 212H746.5C746.5 215.314 749.186 218 752.5 218V214ZM882.5 212C882.5 213.105 881.605 214 880.5 214V218C883.814 218 886.5 215.314 886.5 212H882.5ZM880.5 181C881.605 181 882.5 181.895 882.5 183H886.5C886.5 179.686 883.814 177 880.5 177V181ZM752.5 177C749.186 177 746.5 179.686 746.5 183H750.5C750.5 181.895 751.395 181 752.5 181V177Z" fill="#4CAF50"/>
<path d="M810.954 239.057H807.256V242.08H811.551V243H806.131V234.469H811.493V235.395H807.256V238.137H810.954V239.057ZM819.377 240.293C819.271 241.195 818.938 241.893 818.375 242.385C817.816 242.873 817.072 243.117 816.143 243.117C815.135 243.117 814.326 242.756 813.717 242.033C813.111 241.311 812.809 240.344 812.809 239.133V238.312C812.809 237.52 812.949 236.822 813.23 236.221C813.516 235.619 813.918 235.158 814.438 234.838C814.957 234.514 815.559 234.352 816.242 234.352C817.148 234.352 817.875 234.605 818.422 235.113C818.969 235.617 819.287 236.316 819.377 237.211H818.246C818.148 236.531 817.936 236.039 817.607 235.734C817.283 235.43 816.828 235.277 816.242 235.277C815.523 235.277 814.959 235.543 814.549 236.074C814.143 236.605 813.939 237.361 813.939 238.342V239.168C813.939 240.094 814.133 240.83 814.52 241.377C814.906 241.924 815.447 242.197 816.143 242.197C816.768 242.197 817.246 242.057 817.578 241.775C817.914 241.49 818.137 240.996 818.246 240.293H819.377ZM827.074 234.469V240.27C827.07 241.074 826.816 241.732 826.312 242.244C825.812 242.756 825.132 243.043 824.273 243.105L823.974 243.117C823.041 243.117 822.296 242.865 821.742 242.361C821.187 241.857 820.906 241.164 820.898 240.281V234.469H822.011V240.246C822.011 240.863 822.181 241.344 822.521 241.688C822.861 242.027 823.345 242.197 823.974 242.197C824.611 242.197 825.097 242.027 825.433 241.688C825.773 241.348 825.943 240.869 825.943 240.252V234.469H827.074Z" fill="white"/>
<path d="M752.5 222H880.5V218H752.5V222ZM882.5 224V253H886.5V224H882.5ZM880.5 255H752.5V259H880.5V255ZM750.5 253V224H746.5V253H750.5ZM752.5 255C751.395 255 750.5 254.105 750.5 253H746.5C746.5 256.314 749.186 259 752.5 259V255ZM882.5 253C882.5 254.105 881.605 255 880.5 255V259C883.814 259 886.5 256.314 886.5 253H882.5ZM880.5 222C881.605 222 882.5 222.895 882.5 224H886.5C886.5 220.686 883.814 218 880.5 218V222ZM752.5 218C749.186 218 746.5 220.686 746.5 224H750.5C750.5 222.895 751.395 222 752.5 222V218Z" fill="#4CAF50"/>
<path d="M748.5 265C748.5 262.791 750.291 261 752.5 261H880.5C882.709 261 884.5 262.791 884.5 265V294C884.5 296.209 882.709 298 880.5 298H752.5C750.291 298 748.5 296.209 748.5 294V265Z" fill="#F44336"/>
<path d="M810.954 280.057H807.256V283.08H811.551V284H806.131V275.469H811.493V276.395H807.256V279.137H810.954V280.057ZM819.377 281.293C819.271 282.195 818.938 282.893 818.375 283.385C817.816 283.873 817.072 284.117 816.143 284.117C815.135 284.117 814.326 283.756 813.717 283.033C813.111 282.311 812.809 281.344 812.809 280.133V279.312C812.809 278.52 812.949 277.822 813.23 277.221C813.516 276.619 813.918 276.158 814.438 275.838C814.957 275.514 815.559 275.352 816.242 275.352C817.148 275.352 817.875 275.605 818.422 276.113C818.969 276.617 819.287 277.316 819.377 278.211H818.246C818.148 277.531 817.936 277.039 817.607 276.734C817.283 276.43 816.828 276.277 816.242 276.277C815.523 276.277 814.959 276.543 814.549 277.074C814.143 277.605 813.939 278.361 813.939 279.342V280.168C813.939 281.094 814.133 281.83 814.52 282.377C814.906 282.924 815.447 283.197 816.143 283.197C816.768 283.197 817.246 283.057 817.578 282.775C817.914 282.49 818.137 281.996 818.246 281.293H819.377ZM827.074 275.469V281.27C827.07 282.074 826.816 282.732 826.312 283.244C825.812 283.756 825.132 284.043 824.273 284.105L823.974 284.117C823.041 284.117 822.296 283.865 821.742 283.361C821.187 282.857 820.906 282.164 820.898 281.281V275.469H822.011V281.246C822.011 281.863 822.181 282.344 822.521 282.688C822.861 283.027 823.345 283.197 823.974 283.197C824.611 283.197 825.097 283.027 825.433 282.688C825.773 282.348 825.943 281.869 825.943 281.252V275.469H827.074Z" fill="white"/>
<path d="M810.954 321.057H807.256V324.08H811.551V325H806.131V316.469H811.493V317.395H807.256V320.137H810.954V321.057ZM819.377 322.293C819.271 323.195 818.938 323.893 818.375 324.385C817.816 324.873 817.072 325.117 816.143 325.117C815.135 325.117 814.326 324.756 813.717 324.033C813.111 323.311 812.809 322.344 812.809 321.133V320.312C812.809 319.52 812.949 318.822 813.23 318.221C813.516 317.619 813.918 317.158 814.438 316.838C814.957 316.514 815.559 316.352 816.242 316.352C817.148 316.352 817.875 316.605 818.422 317.113C818.969 317.617 819.287 318.316 819.377 319.211H818.246C818.148 318.531 817.936 318.039 817.607 317.734C817.283 317.43 816.828 317.277 816.242 317.277C815.523 317.277 814.959 317.543 814.549 318.074C814.143 318.605 813.939 319.361 813.939 320.342V321.168C813.939 322.094 814.133 322.83 814.52 323.377C814.906 323.924 815.447 324.197 816.143 324.197C816.768 324.197 817.246 324.057 817.578 323.775C817.914 323.49 818.137 322.996 818.246 322.293H819.377ZM827.074 316.469V322.27C827.07 323.074 826.816 323.732 826.312 324.244C825.812 324.756 825.132 325.043 824.273 325.105L823.974 325.117C823.041 325.117 822.296 324.865 821.742 324.361C821.187 323.857 820.906 323.164 820.898 322.281V316.469H822.011V322.246C822.011 322.863 822.181 323.344 822.521 323.688C822.861 324.027 823.345 324.197 823.974 324.197C824.611 324.197 825.097 324.027 825.433 323.688C825.773 323.348 825.943 322.869 825.943 322.252V316.469H827.074Z" fill="white"/>
<path d="M752.5 304H880.5V300H752.5V304ZM882.5 306V335H886.5V306H882.5ZM880.5 337H752.5V341H880.5V337ZM750.5 335V306H746.5V335H750.5ZM752.5 337C751.395 337 750.5 336.105 750.5 335H746.5C746.5 338.314 749.186 341 752.5 341V337ZM882.5 335C882.5 336.105 881.605 337 880.5 337V341C883.814 341 886.5 338.314 886.5 335H882.5ZM880.5 304C881.605 304 882.5 304.895 882.5 306H886.5C886.5 302.686 883.814 300 880.5 300V304ZM752.5 300C749.186 300 746.5 302.686 746.5 306H750.5C750.5 304.895 751.395 304 752.5 304V300Z" fill="#4CAF50"/>
<path d="M810.954 362.057H807.256V365.08H811.551V366H806.131V357.469H811.493V358.395H807.256V361.137H810.954V362.057ZM819.377 363.293C819.271 364.195 818.938 364.893 818.375 365.385C817.816 365.873 817.072 366.117 816.143 366.117C815.135 366.117 814.326 365.756 813.717 365.033C813.111 364.311 812.809 363.344 812.809 362.133V361.312C812.809 360.52 812.949 359.822 813.23 359.221C813.516 358.619 813.918 358.158 814.438 357.838C814.957 357.514 815.559 357.352 816.242 357.352C817.148 357.352 817.875 357.605 818.422 358.113C818.969 358.617 819.287 359.316 819.377 360.211H818.246C818.148 359.531 817.936 359.039 817.607 358.734C817.283 358.43 816.828 358.277 816.242 358.277C815.523 358.277 814.959 358.543 814.549 359.074C814.143 359.605 813.939 360.361 813.939 361.342V362.168C813.939 363.094 814.133 363.83 814.52 364.377C814.906 364.924 815.447 365.197 816.143 365.197C816.768 365.197 817.246 365.057 817.578 364.775C817.914 364.49 818.137 363.996 818.246 363.293H819.377ZM827.074 357.469V363.27C827.07 364.074 826.816 364.732 826.312 365.244C825.812 365.756 825.132 366.043 824.273 366.105L823.974 366.117C823.041 366.117 822.296 365.865 821.742 365.361C821.187 364.857 820.906 364.164 820.898 363.281V357.469H822.011V363.246C822.011 363.863 822.181 364.344 822.521 364.688C822.861 365.027 823.345 365.197 823.974 365.197C824.611 365.197 825.097 365.027 825.433 364.688C825.773 364.348 825.943 363.869 825.943 363.252V357.469H827.074Z" fill="white"/>
<path d="M752.5 345H880.5V341H752.5V345ZM882.5 347V376H886.5V347H882.5ZM880.5 378H752.5V382H880.5V378ZM750.5 376V347H746.5V376H750.5ZM752.5 378C751.395 378 750.5 377.105 750.5 376H746.5C746.5 379.314 749.186 382 752.5 382V378ZM882.5 376C882.5 377.105 881.605 378 880.5 378V382C883.814 382 886.5 379.314 886.5 376H882.5ZM880.5 345C881.605 345 882.5 345.895 882.5 347H886.5C886.5 343.686 883.814 341 880.5 341V345ZM752.5 341C749.186 341 746.5 343.686 746.5 347H750.5C750.5 345.895 751.395 345 752.5 345V341Z" fill="#4CAF50"/>
<path d="M810.954 403.057H807.256V406.08H811.551V407H806.131V398.469H811.493V399.395H807.256V402.137H810.954V403.057ZM819.377 404.293C819.271 405.195 818.938 405.893 818.375 406.385C817.816 406.873 817.072 407.117 816.143 407.117C815.135 407.117 814.326 406.756 813.717 406.033C813.111 405.311 812.809 404.344 812.809 403.133V402.312C812.809 401.52 812.949 400.822 813.23 400.221C813.516 399.619 813.918 399.158 814.438 398.838C814.957 398.514 815.559 398.352 816.242 398.352C817.148 398.352 817.875 398.605 818.422 399.113C818.969 399.617 819.287 400.316 819.377 401.211H818.246C818.148 400.531 817.936 400.039 817.607 399.734C817.283 399.43 816.828 399.277 816.242 399.277C815.523 399.277 814.959 399.543 814.549 400.074C814.143 400.605 813.939 401.361 813.939 402.342V403.168C813.939 404.094 814.133 404.83 814.52 405.377C814.906 405.924 815.447 406.197 816.143 406.197C816.768 406.197 817.246 406.057 817.578 405.775C817.914 405.49 818.137 404.996 818.246 404.293H819.377ZM827.074 398.469V404.27C827.07 405.074 826.816 405.732 826.312 406.244C825.812 406.756 825.132 407.043 824.273 407.105L823.974 407.117C823.041 407.117 822.296 406.865 821.742 406.361C821.187 405.857 820.906 405.164 820.898 404.281V398.469H822.011V404.246C822.011 404.863 822.181 405.344 822.521 405.688C822.861 406.027 823.345 406.197 823.974 406.197C824.611 406.197 825.097 406.027 825.433 405.688C825.773 405.348 825.943 404.869 825.943 404.252V398.469H827.074Z" fill="white"/>
<path d="M752.5 386H880.5V382H752.5V386ZM882.5 388V417H886.5V388H882.5ZM880.5 419H752.5V423H880.5V419ZM750.5 417V388H746.5V417H750.5ZM752.5 419C751.395 419 750.5 418.105 750.5 417H746.5C746.5 420.314 749.186 423 752.5 423V419ZM882.5 417C882.5 418.105 881.605 419 880.5 419V423C883.814 423 886.5 420.314 886.5 417H882.5ZM880.5 386C881.605 386 882.5 386.895 882.5 388H886.5C886.5 384.686 883.814 382 880.5 382V386ZM752.5 382C749.186 382 746.5 384.686 746.5 388H750.5C750.5 386.895 751.395 386 752.5 386V382Z" fill="#4CAF50"/>
<path d="M810.954 444.057H807.256V447.08H811.551V448H806.131V439.469H811.493V440.395H807.256V443.137H810.954V444.057ZM819.377 445.293C819.271 446.195 818.938 446.893 818.375 447.385C817.816 447.873 817.072 448.117 816.143 448.117C815.135 448.117 814.326 447.756 813.717 447.033C813.111 446.311 812.809 445.344 812.809 444.133V443.312C812.809 442.52 812.949 441.822 813.23 441.221C813.516 440.619 813.918 440.158 814.438 439.838C814.957 439.514 815.559 439.352 816.242 439.352C817.148 439.352 817.875 439.605 818.422 440.113C818.969 440.617 819.287 441.316 819.377 442.211H818.246C818.148 441.531 817.936 441.039 817.607 440.734C817.283 440.43 816.828 440.277 816.242 440.277C815.523 440.277 814.959 440.543 814.549 441.074C814.143 441.605 813.939 442.361 813.939 443.342V444.168C813.939 445.094 814.133 445.83 814.52 446.377C814.906 446.924 815.447 447.197 816.143 447.197C816.768 447.197 817.246 447.057 817.578 446.775C817.914 446.49 818.137 445.996 818.246 445.293H819.377ZM827.074 439.469V445.27C827.07 446.074 826.816 446.732 826.312 447.244C825.812 447.756 825.132 448.043 824.273 448.105L823.974 448.117C823.041 448.117 822.296 447.865 821.742 447.361C821.187 446.857 820.906 446.164 820.898 445.281V439.469H822.011V445.246C822.011 445.863 822.181 446.344 822.521 446.688C822.861 447.027 823.345 447.197 823.974 447.197C824.611 447.197 825.097 447.027 825.433 446.688C825.773 446.348 825.943 445.869 825.943 445.252V439.469H827.074Z" fill="white"/>
<path d="M752.5 427H880.5V423H752.5V427ZM882.5 429V458H886.5V429H882.5ZM880.5 460H752.5V464H880.5V460ZM750.5 458V429H746.5V458H750.5ZM752.5 460C751.395 460 750.5 459.105 750.5 458H746.5C746.5 461.314 749.186 464 752.5 464V460ZM882.5 458C882.5 459.105 881.605 460 880.5 460V464C883.814 464 886.5 461.314 886.5 458H882.5ZM880.5 427C881.605 427 882.5 427.895 882.5 429H886.5C886.5 425.686 883.814 423 880.5 423V427ZM752.5 423C749.186 423 746.5 425.686 746.5 429H750.5C750.5 427.895 751.395 427 752.5 427V423Z" fill="#4CAF50"/>
<path d="M810.954 485.057H807.256V488.08H811.551V489H806.131V480.469H811.493V481.395H807.256V484.137H810.954V485.057ZM819.377 486.293C819.271 487.195 818.938 487.893 818.375 488.385C817.816 488.873 817.072 489.117 816.143 489.117C815.135 489.117 814.326 488.756 813.717 488.033C813.111 487.311 812.809 486.344 812.809 485.133V484.312C812.809 483.52 812.949 482.822 813.23 482.221C813.516 481.619 813.918 481.158 814.438 480.838C814.957 480.514 815.559 480.352 816.242 480.352C817.148 480.352 817.875 480.605 818.422 481.113C818.969 481.617 819.287 482.316 819.377 483.211H818.246C818.148 482.531 817.936 482.039 817.607 481.734C817.283 481.43 816.828 481.277 816.242 481.277C815.523 481.277 814.959 481.543 814.549 482.074C814.143 482.605 813.939 483.361 813.939 484.342V485.168C813.939 486.094 814.133 486.83 814.52 487.377C814.906 487.924 815.447 488.197 816.143 488.197C816.768 488.197 817.246 488.057 817.578 487.775C817.914 487.49 818.137 486.996 818.246 486.293H819.377ZM827.074 480.469V486.27C827.07 487.074 826.816 487.732 826.312 488.244C825.812 488.756 825.132 489.043 824.273 489.105L823.974 489.117C823.041 489.117 822.296 488.865 821.742 488.361C821.187 487.857 820.906 487.164 820.898 486.281V480.469H822.011V486.246C822.011 486.863 822.181 487.344 822.521 487.688C822.861 488.027 823.345 488.197 823.974 488.197C824.611 488.197 825.097 488.027 825.433 487.688C825.773 487.348 825.943 486.869 825.943 486.252V480.469H827.074Z" fill="white"/>
<path d="M752.5 468H880.5V464H752.5V468ZM882.5 470V499H886.5V470H882.5ZM880.5 501H752.5V505H880.5V501ZM750.5 499V470H746.5V499H750.5ZM752.5 501C751.395 501 750.5 500.105 750.5 499H746.5C746.5 502.314 749.186 505 752.5 505V501ZM882.5 499C882.5 500.105 881.605 501 880.5 501V505C883.814 505 886.5 502.314 886.5 499H882.5ZM880.5 468C881.605 468 882.5 468.895 882.5 470H886.5C886.5 466.686 883.814 464 880.5 464V468ZM752.5 464C749.186 464 746.5 466.686 746.5 470H750.5C750.5 468.895 751.395 468 752.5 468V464Z" fill="#4CAF50"/>
<path d="M810.954 526.057H807.256V529.08H811.551V530H806.131V521.469H811.493V522.395H807.256V525.137H810.954V526.057ZM819.377 527.293C819.271 528.195 818.938 528.893 818.375 529.385C817.816 529.873 817.072 530.117 816.143 530.117C815.135 530.117 814.326 529.756 813.717 529.033C813.111 528.311 812.809 527.344 812.809 526.133V525.312C812.809 524.52 812.949 523.822 813.23 523.221C813.516 522.619 813.918 522.158 814.438 521.838C814.957 521.514 815.559 521.352 816.242 521.352C817.148 521.352 817.875 521.605 818.422 522.113C818.969 522.617 819.287 523.316 819.377 524.211H818.246C818.148 523.531 817.936 523.039 817.607 522.734C817.283 522.43 816.828 522.277 816.242 522.277C815.523 522.277 814.959 522.543 814.549 523.074C814.143 523.605 813.939 524.361 813.939 525.342V526.168C813.939 527.094 814.133 527.83 814.52 528.377C814.906 528.924 815.447 529.197 816.143 529.197C816.768 529.197 817.246 529.057 817.578 528.775C817.914 528.49 818.137 527.996 818.246 527.293H819.377ZM827.074 521.469V527.27C827.07 528.074 826.816 528.732 826.312 529.244C825.812 529.756 825.132 530.043 824.273 530.105L823.974 530.117C823.041 530.117 822.296 529.865 821.742 529.361C821.187 528.857 820.906 528.164 820.898 527.281V521.469H822.011V527.246C822.011 527.863 822.181 528.344 822.521 528.688C822.861 529.027 823.345 529.197 823.974 529.197C824.611 529.197 825.097 529.027 825.433 528.688C825.773 528.348 825.943 527.869 825.943 527.252V521.469H827.074Z" fill="white"/>
<path d="M752.5 509H880.5V505H752.5V509ZM882.5 511V540H886.5V511H882.5ZM880.5 542H752.5V546H880.5V542ZM750.5 540V511H746.5V540H750.5ZM752.5 542C751.395 542 750.5 541.105 750.5 540H746.5C746.5 543.314 749.186 546 752.5 546V542ZM882.5 540C882.5 541.105 881.605 542 880.5 542V546C883.814 546 886.5 543.314 886.5 540H882.5ZM880.5 509C881.605 509 882.5 509.895 882.5 511H886.5C886.5 507.686 883.814 505 880.5 505V509ZM752.5 505C749.186 505 746.5 507.686 746.5 511H750.5C750.5 509.895 751.395 509 752.5 509V505Z" fill="#4CAF50"/>
<line x1="714" y1="123" x2="714" y2="133" stroke="white" stroke-width="2" stroke-linecap="square"/>
<line x1="1024.5" y1="133" x2="1024.5" y2="146" stroke="white" stroke-width="2" stroke-linecap="square"/>
<rect x="950" y="147" width="147" height="405" rx="4" fill="#636363"/>
<path d="M1011.89 166.842C1011.77 167.895 1011.38 168.708 1010.72 169.282C1010.07 169.852 1009.2 170.137 1008.12 170.137C1006.94 170.137 1006 169.715 1005.29 168.872C1004.58 168.029 1004.23 166.901 1004.23 165.488V164.531C1004.23 163.606 1004.39 162.793 1004.72 162.091C1005.06 161.389 1005.52 160.851 1006.13 160.478C1006.74 160.099 1007.44 159.91 1008.24 159.91C1009.29 159.91 1010.14 160.206 1010.78 160.799C1011.42 161.387 1011.79 162.202 1011.89 163.246H1010.57C1010.46 162.453 1010.21 161.879 1009.83 161.523C1009.45 161.168 1008.92 160.99 1008.24 160.99C1007.4 160.99 1006.74 161.3 1006.26 161.92C1005.79 162.54 1005.55 163.422 1005.55 164.565V165.529C1005.55 166.609 1005.78 167.468 1006.23 168.106C1006.68 168.744 1007.31 169.063 1008.12 169.063C1008.85 169.063 1009.41 168.899 1009.79 168.571C1010.19 168.239 1010.45 167.662 1010.57 166.842H1011.89ZM1019.34 167.402H1015.17L1014.23 170H1012.88L1016.68 160.047H1017.83L1021.63 170H1020.29L1019.34 167.402ZM1015.56 166.322H1018.95L1017.25 161.667L1015.56 166.322ZM1030.77 170H1029.45L1024.44 162.33V170H1023.12V160.047H1024.44L1029.47 167.751V160.047H1030.77V170ZM1041.89 166.657H1043.27V167.689H1041.89V170H1040.62V167.689H1036.08V166.944L1040.54 160.047H1041.89V166.657ZM1037.52 166.657H1040.62V161.776L1040.47 162.05L1037.52 166.657Z" fill="white"/>
<path d="M1017.95 198.057H1014.26V201.08H1018.55V202H1013.13V193.469H1018.49V194.395H1014.26V197.137H1017.95V198.057ZM1026.38 199.293C1026.27 200.195 1025.94 200.893 1025.38 201.385C1024.82 201.873 1024.07 202.117 1023.14 202.117C1022.13 202.117 1021.33 201.756 1020.72 201.033C1020.11 200.311 1019.81 199.344 1019.81 198.133V197.312C1019.81 196.52 1019.95 195.822 1020.23 195.221C1020.52 194.619 1020.92 194.158 1021.44 193.838C1021.96 193.514 1022.56 193.352 1023.24 193.352C1024.15 193.352 1024.88 193.605 1025.42 194.113C1025.97 194.617 1026.29 195.316 1026.38 196.211H1025.25C1025.15 195.531 1024.94 195.039 1024.61 194.734C1024.28 194.43 1023.83 194.277 1023.24 194.277C1022.52 194.277 1021.96 194.543 1021.55 195.074C1021.14 195.605 1020.94 196.361 1020.94 197.342V198.168C1020.94 199.094 1021.13 199.83 1021.52 200.377C1021.91 200.924 1022.45 201.197 1023.14 201.197C1023.77 201.197 1024.25 201.057 1024.58 200.775C1024.91 200.49 1025.14 199.996 1025.25 199.293H1026.38ZM1034.07 193.469V199.27C1034.07 200.074 1033.82 200.732 1033.31 201.244C1032.81 201.756 1032.13 202.043 1031.27 202.105L1030.97 202.117C1030.04 202.117 1029.3 201.865 1028.74 201.361C1028.19 200.857 1027.91 200.164 1027.9 199.281V193.469H1029.01V199.246C1029.01 199.863 1029.18 200.344 1029.52 200.688C1029.86 201.027 1030.35 201.197 1030.97 201.197C1031.61 201.197 1032.1 201.027 1032.43 200.688C1032.77 200.348 1032.94 199.869 1032.94 199.252V193.469H1034.07Z" fill="white"/>
<path d="M959.5 181H1087.5V177H959.5V181ZM1089.5 183V212H1093.5V183H1089.5ZM1087.5 214H959.5V218H1087.5V214ZM957.5 212V183H953.5V212H957.5ZM959.5 214C958.395 214 957.5 213.105 957.5 212H953.5C953.5 215.314 956.186 218 959.5 218V214ZM1089.5 212C1089.5 213.105 1088.6 214 1087.5 214V218C1090.81 218 1093.5 215.314 1093.5 212H1089.5ZM1087.5 181C1088.6 181 1089.5 181.895 1089.5 183H1093.5C1093.5 179.686 1090.81 177 1087.5 177V181ZM959.5 177C956.186 177 953.5 179.686 953.5 183H957.5C957.5 181.895 958.395 181 959.5 181V177Z" fill="#4CAF50"/>
<path d="M1017.95 239.057H1014.26V242.08H1018.55V243H1013.13V234.469H1018.49V235.395H1014.26V238.137H1017.95V239.057ZM1026.38 240.293C1026.27 241.195 1025.94 241.893 1025.38 242.385C1024.82 242.873 1024.07 243.117 1023.14 243.117C1022.13 243.117 1021.33 242.756 1020.72 242.033C1020.11 241.311 1019.81 240.344 1019.81 239.133V238.312C1019.81 237.52 1019.95 236.822 1020.23 236.221C1020.52 235.619 1020.92 235.158 1021.44 234.838C1021.96 234.514 1022.56 234.352 1023.24 234.352C1024.15 234.352 1024.88 234.605 1025.42 235.113C1025.97 235.617 1026.29 236.316 1026.38 237.211H1025.25C1025.15 236.531 1024.94 236.039 1024.61 235.734C1024.28 235.43 1023.83 235.277 1023.24 235.277C1022.52 235.277 1021.96 235.543 1021.55 236.074C1021.14 236.605 1020.94 237.361 1020.94 238.342V239.168C1020.94 240.094 1021.13 240.83 1021.52 241.377C1021.91 241.924 1022.45 242.197 1023.14 242.197C1023.77 242.197 1024.25 242.057 1024.58 241.775C1024.91 241.49 1025.14 240.996 1025.25 240.293H1026.38ZM1034.07 234.469V240.27C1034.07 241.074 1033.82 241.732 1033.31 242.244C1032.81 242.756 1032.13 243.043 1031.27 243.105L1030.97 243.117C1030.04 243.117 1029.3 242.865 1028.74 242.361C1028.19 241.857 1027.91 241.164 1027.9 240.281V234.469H1029.01V240.246C1029.01 240.863 1029.18 241.344 1029.52 241.688C1029.86 242.027 1030.35 242.197 1030.97 242.197C1031.61 242.197 1032.1 242.027 1032.43 241.688C1032.77 241.348 1032.94 240.869 1032.94 240.252V234.469H1034.07Z" fill="white"/>
<path d="M959.5 222H1087.5V218H959.5V222ZM1089.5 224V253H1093.5V224H1089.5ZM1087.5 255H959.5V259H1087.5V255ZM957.5 253V224H953.5V253H957.5ZM959.5 255C958.395 255 957.5 254.105 957.5 253H953.5C953.5 256.314 956.186 259 959.5 259V255ZM1089.5 253C1089.5 254.105 1088.6 255 1087.5 255V259C1090.81 259 1093.5 256.314 1093.5 253H1089.5ZM1087.5 222C1088.6 222 1089.5 222.895 1089.5 224H1093.5C1093.5 220.686 1090.81 218 1087.5 218V222ZM959.5 218C956.186 218 953.5 220.686 953.5 224H957.5C957.5 222.895 958.395 222 959.5 222V218Z" fill="#4CAF50"/>
<path d="M1017.95 280.057H1014.26V283.08H1018.55V284H1013.13V275.469H1018.49V276.395H1014.26V279.137H1017.95V280.057ZM1026.38 281.293C1026.27 282.195 1025.94 282.893 1025.38 283.385C1024.82 283.873 1024.07 284.117 1023.14 284.117C1022.13 284.117 1021.33 283.756 1020.72 283.033C1020.11 282.311 1019.81 281.344 1019.81 280.133V279.312C1019.81 278.52 1019.95 277.822 1020.23 277.221C1020.52 276.619 1020.92 276.158 1021.44 275.838C1021.96 275.514 1022.56 275.352 1023.24 275.352C1024.15 275.352 1024.88 275.605 1025.42 276.113C1025.97 276.617 1026.29 277.316 1026.38 278.211H1025.25C1025.15 277.531 1024.94 277.039 1024.61 276.734C1024.28 276.43 1023.83 276.277 1023.24 276.277C1022.52 276.277 1021.96 276.543 1021.55 277.074C1021.14 277.605 1020.94 278.361 1020.94 279.342V280.168C1020.94 281.094 1021.13 281.83 1021.52 282.377C1021.91 282.924 1022.45 283.197 1023.14 283.197C1023.77 283.197 1024.25 283.057 1024.58 282.775C1024.91 282.49 1025.14 281.996 1025.25 281.293H1026.38ZM1034.07 275.469V281.27C1034.07 282.074 1033.82 282.732 1033.31 283.244C1032.81 283.756 1032.13 284.043 1031.27 284.105L1030.97 284.117C1030.04 284.117 1029.3 283.865 1028.74 283.361C1028.19 282.857 1027.91 282.164 1027.9 281.281V275.469H1029.01V281.246C1029.01 281.863 1029.18 282.344 1029.52 282.688C1029.86 283.027 1030.35 283.197 1030.97 283.197C1031.61 283.197 1032.1 283.027 1032.43 282.688C1032.77 282.348 1032.94 281.869 1032.94 281.252V275.469H1034.07Z" fill="white"/>
<path d="M959.5 263H1087.5V259H959.5V263ZM1089.5 265V294H1093.5V265H1089.5ZM1087.5 296H959.5V300H1087.5V296ZM957.5 294V265H953.5V294H957.5ZM959.5 296C958.395 296 957.5 295.105 957.5 294H953.5C953.5 297.314 956.186 300 959.5 300V296ZM1089.5 294C1089.5 295.105 1088.6 296 1087.5 296V300C1090.81 300 1093.5 297.314 1093.5 294H1089.5ZM1087.5 263C1088.6 263 1089.5 263.895 1089.5 265H1093.5C1093.5 261.686 1090.81 259 1087.5 259V263ZM959.5 259C956.186 259 953.5 261.686 953.5 265H957.5C957.5 263.895 958.395 263 959.5 263V259Z" fill="#4CAF50"/>
<path d="M955.5 306C955.5 303.791 957.291 302 959.5 302H1087.5C1089.71 302 1091.5 303.791 1091.5 306V335C1091.5 337.209 1089.71 339 1087.5 339H959.5C957.291 339 955.5 337.209 955.5 335V306Z" fill="#2196F3"/>
<path d="M1017.95 321.057H1014.26V324.08H1018.55V325H1013.13V316.469H1018.49V317.395H1014.26V320.137H1017.95V321.057ZM1026.38 322.293C1026.27 323.195 1025.94 323.893 1025.38 324.385C1024.82 324.873 1024.07 325.117 1023.14 325.117C1022.13 325.117 1021.33 324.756 1020.72 324.033C1020.11 323.311 1019.81 322.344 1019.81 321.133V320.312C1019.81 319.52 1019.95 318.822 1020.23 318.221C1020.52 317.619 1020.92 317.158 1021.44 316.838C1021.96 316.514 1022.56 316.352 1023.24 316.352C1024.15 316.352 1024.88 316.605 1025.42 317.113C1025.97 317.617 1026.29 318.316 1026.38 319.211H1025.25C1025.15 318.531 1024.94 318.039 1024.61 317.734C1024.28 317.43 1023.83 317.277 1023.24 317.277C1022.52 317.277 1021.96 317.543 1021.55 318.074C1021.14 318.605 1020.94 319.361 1020.94 320.342V321.168C1020.94 322.094 1021.13 322.83 1021.52 323.377C1021.91 323.924 1022.45 324.197 1023.14 324.197C1023.77 324.197 1024.25 324.057 1024.58 323.775C1024.91 323.49 1025.14 322.996 1025.25 322.293H1026.38ZM1034.07 316.469V322.27C1034.07 323.074 1033.82 323.732 1033.31 324.244C1032.81 324.756 1032.13 325.043 1031.27 325.105L1030.97 325.117C1030.04 325.117 1029.3 324.865 1028.74 324.361C1028.19 323.857 1027.91 323.164 1027.9 322.281V316.469H1029.01V322.246C1029.01 322.863 1029.18 323.344 1029.52 323.688C1029.86 324.027 1030.35 324.197 1030.97 324.197C1031.61 324.197 1032.1 324.027 1032.43 323.688C1032.77 323.348 1032.94 322.869 1032.94 322.252V316.469H1034.07Z" fill="white"/>
<path d="M1017.95 362.057H1014.26V365.08H1018.55V366H1013.13V357.469H1018.49V358.395H1014.26V361.137H1017.95V362.057ZM1026.38 363.293C1026.27 364.195 1025.94 364.893 1025.38 365.385C1024.82 365.873 1024.07 366.117 1023.14 366.117C1022.13 366.117 1021.33 365.756 1020.72 365.033C1020.11 364.311 1019.81 363.344 1019.81 362.133V361.312C1019.81 360.52 1019.95 359.822 1020.23 359.221C1020.52 358.619 1020.92 358.158 1021.44 357.838C1021.96 357.514 1022.56 357.352 1023.24 357.352C1024.15 357.352 1024.88 357.605 1025.42 358.113C1025.97 358.617 1026.29 359.316 1026.38 360.211H1025.25C1025.15 359.531 1024.94 359.039 1024.61 358.734C1024.28 358.43 1023.83 358.277 1023.24 358.277C1022.52 358.277 1021.96 358.543 1021.55 359.074C1021.14 359.605 1020.94 360.361 1020.94 361.342V362.168C1020.94 363.094 1021.13 363.83 1021.52 364.377C1021.91 364.924 1022.45 365.197 1023.14 365.197C1023.77 365.197 1024.25 365.057 1024.58 364.775C1024.91 364.49 1025.14 363.996 1025.25 363.293H1026.38ZM1034.07 357.469V363.27C1034.07 364.074 1033.82 364.732 1033.31 365.244C1032.81 365.756 1032.13 366.043 1031.27 366.105L1030.97 366.117C1030.04 366.117 1029.3 365.865 1028.74 365.361C1028.19 364.857 1027.91 364.164 1027.9 363.281V357.469H1029.01V363.246C1029.01 363.863 1029.18 364.344 1029.52 364.688C1029.86 365.027 1030.35 365.197 1030.97 365.197C1031.61 365.197 1032.1 365.027 1032.43 364.688C1032.77 364.348 1032.94 363.869 1032.94 363.252V357.469H1034.07Z" fill="white"/>
<path d="M959.5 345H1087.5V341H959.5V345ZM1089.5 347V376H1093.5V347H1089.5ZM1087.5 378H959.5V382H1087.5V378ZM957.5 376V347H953.5V376H957.5ZM959.5 378C958.395 378 957.5 377.105 957.5 376H953.5C953.5 379.314 956.186 382 959.5 382V378ZM1089.5 376C1089.5 377.105 1088.6 378 1087.5 378V382C1090.81 382 1093.5 379.314 1093.5 376H1089.5ZM1087.5 345C1088.6 345 1089.5 345.895 1089.5 347H1093.5C1093.5 343.686 1090.81 341 1087.5 341V345ZM959.5 341C956.186 341 953.5 343.686 953.5 347H957.5C957.5 345.895 958.395 345 959.5 345V341Z" fill="#4CAF50"/>
<path d="M1017.95 403.057H1014.26V406.08H1018.55V407H1013.13V398.469H1018.49V399.395H1014.26V402.137H1017.95V403.057ZM1026.38 404.293C1026.27 405.195 1025.94 405.893 1025.38 406.385C1024.82 406.873 1024.07 407.117 1023.14 407.117C1022.13 407.117 1021.33 406.756 1020.72 406.033C1020.11 405.311 1019.81 404.344 1019.81 403.133V402.312C1019.81 401.52 1019.95 400.822 1020.23 400.221C1020.52 399.619 1020.92 399.158 1021.44 398.838C1021.96 398.514 1022.56 398.352 1023.24 398.352C1024.15 398.352 1024.88 398.605 1025.42 399.113C1025.97 399.617 1026.29 400.316 1026.38 401.211H1025.25C1025.15 400.531 1024.94 400.039 1024.61 399.734C1024.28 399.43 1023.83 399.277 1023.24 399.277C1022.52 399.277 1021.96 399.543 1021.55 400.074C1021.14 400.605 1020.94 401.361 1020.94 402.342V403.168C1020.94 404.094 1021.13 404.83 1021.52 405.377C1021.91 405.924 1022.45 406.197 1023.14 406.197C1023.77 406.197 1024.25 406.057 1024.58 405.775C1024.91 405.49 1025.14 404.996 1025.25 404.293H1026.38ZM1034.07 398.469V404.27C1034.07 405.074 1033.82 405.732 1033.31 406.244C1032.81 406.756 1032.13 407.043 1031.27 407.105L1030.97 407.117C1030.04 407.117 1029.3 406.865 1028.74 406.361C1028.19 405.857 1027.91 405.164 1027.9 404.281V398.469H1029.01V404.246C1029.01 404.863 1029.18 405.344 1029.52 405.688C1029.86 406.027 1030.35 406.197 1030.97 406.197C1031.61 406.197 1032.1 406.027 1032.43 405.688C1032.77 405.348 1032.94 404.869 1032.94 404.252V398.469H1034.07Z" fill="white"/>
<path d="M959.5 386H1087.5V382H959.5V386ZM1089.5 388V417H1093.5V388H1089.5ZM1087.5 419H959.5V423H1087.5V419ZM957.5 417V388H953.5V417H957.5ZM959.5 419C958.395 419 957.5 418.105 957.5 417H953.5C953.5 420.314 956.186 423 959.5 423V419ZM1089.5 417C1089.5 418.105 1088.6 419 1087.5 419V423C1090.81 423 1093.5 420.314 1093.5 417H1089.5ZM1087.5 386C1088.6 386 1089.5 386.895 1089.5 388H1093.5C1093.5 384.686 1090.81 382 1087.5 382V386ZM959.5 382C956.186 382 953.5 384.686 953.5 388H957.5C957.5 386.895 958.395 386 959.5 386V382Z" fill="#4CAF50"/>
<path d="M1017.95 444.057H1014.26V447.08H1018.55V448H1013.13V439.469H1018.49V440.395H1014.26V443.137H1017.95V444.057ZM1026.38 445.293C1026.27 446.195 1025.94 446.893 1025.38 447.385C1024.82 447.873 1024.07 448.117 1023.14 448.117C1022.13 448.117 1021.33 447.756 1020.72 447.033C1020.11 446.311 1019.81 445.344 1019.81 444.133V443.312C1019.81 442.52 1019.95 441.822 1020.23 441.221C1020.52 440.619 1020.92 440.158 1021.44 439.838C1021.96 439.514 1022.56 439.352 1023.24 439.352C1024.15 439.352 1024.88 439.605 1025.42 440.113C1025.97 440.617 1026.29 441.316 1026.38 442.211H1025.25C1025.15 441.531 1024.94 441.039 1024.61 440.734C1024.28 440.43 1023.83 440.277 1023.24 440.277C1022.52 440.277 1021.96 440.543 1021.55 441.074C1021.14 441.605 1020.94 442.361 1020.94 443.342V444.168C1020.94 445.094 1021.13 445.83 1021.52 446.377C1021.91 446.924 1022.45 447.197 1023.14 447.197C1023.77 447.197 1024.25 447.057 1024.58 446.775C1024.91 446.49 1025.14 445.996 1025.25 445.293H1026.38ZM1034.07 439.469V445.27C1034.07 446.074 1033.82 446.732 1033.31 447.244C1032.81 447.756 1032.13 448.043 1031.27 448.105L1030.97 448.117C1030.04 448.117 1029.3 447.865 1028.74 447.361C1028.19 446.857 1027.91 446.164 1027.9 445.281V439.469H1029.01V445.246C1029.01 445.863 1029.18 446.344 1029.52 446.688C1029.86 447.027 1030.35 447.197 1030.97 447.197C1031.61 447.197 1032.1 447.027 1032.43 446.688C1032.77 446.348 1032.94 445.869 1032.94 445.252V439.469H1034.07Z" fill="white"/>
<path d="M959.5 427H1087.5V423H959.5V427ZM1089.5 429V458H1093.5V429H1089.5ZM1087.5 460H959.5V464H1087.5V460ZM957.5 458V429H953.5V458H957.5ZM959.5 460C958.395 460 957.5 459.105 957.5 458H953.5C953.5 461.314 956.186 464 959.5 464V460ZM1089.5 458C1089.5 459.105 1088.6 460 1087.5 460V464C1090.81 464 1093.5 461.314 1093.5 458H1089.5ZM1087.5 427C1088.6 427 1089.5 427.895 1089.5 429H1093.5C1093.5 425.686 1090.81 423 1087.5 423V427ZM959.5 423C956.186 423 953.5 425.686 953.5 429H957.5C957.5 427.895 958.395 427 959.5 427V423Z" fill="#4CAF50"/>
<path d="M1017.95 485.057H1014.26V488.08H1018.55V489H1013.13V480.469H1018.49V481.395H1014.26V484.137H1017.95V485.057ZM1026.38 486.293C1026.27 487.195 1025.94 487.893 1025.38 488.385C1024.82 488.873 1024.07 489.117 1023.14 489.117C1022.13 489.117 1021.33 488.756 1020.72 488.033C1020.11 487.311 1019.81 486.344 1019.81 485.133V484.312C1019.81 483.52 1019.95 482.822 1020.23 482.221C1020.52 481.619 1020.92 481.158 1021.44 480.838C1021.96 480.514 1022.56 480.352 1023.24 480.352C1024.15 480.352 1024.88 480.605 1025.42 481.113C1025.97 481.617 1026.29 482.316 1026.38 483.211H1025.25C1025.15 482.531 1024.94 482.039 1024.61 481.734C1024.28 481.43 1023.83 481.277 1023.24 481.277C1022.52 481.277 1021.96 481.543 1021.55 482.074C1021.14 482.605 1020.94 483.361 1020.94 484.342V485.168C1020.94 486.094 1021.13 486.83 1021.52 487.377C1021.91 487.924 1022.45 488.197 1023.14 488.197C1023.77 488.197 1024.25 488.057 1024.58 487.775C1024.91 487.49 1025.14 486.996 1025.25 486.293H1026.38ZM1034.07 480.469V486.27C1034.07 487.074 1033.82 487.732 1033.31 488.244C1032.81 488.756 1032.13 489.043 1031.27 489.105L1030.97 489.117C1030.04 489.117 1029.3 488.865 1028.74 488.361C1028.19 487.857 1027.91 487.164 1027.9 486.281V480.469H1029.01V486.246C1029.01 486.863 1029.18 487.344 1029.52 487.688C1029.86 488.027 1030.35 488.197 1030.97 488.197C1031.61 488.197 1032.1 488.027 1032.43 487.688C1032.77 487.348 1032.94 486.869 1032.94 486.252V480.469H1034.07Z" fill="white"/>
<path d="M959.5 468H1087.5V464H959.5V468ZM1089.5 470V499H1093.5V470H1089.5ZM1087.5 501H959.5V505H1087.5V501ZM957.5 499V470H953.5V499H957.5ZM959.5 501C958.395 501 957.5 500.105 957.5 499H953.5C953.5 502.314 956.186 505 959.5 505V501ZM1089.5 499C1089.5 500.105 1088.6 501 1087.5 501V505C1090.81 505 1093.5 502.314 1093.5 499H1089.5ZM1087.5 468C1088.6 468 1089.5 468.895 1089.5 470H1093.5C1093.5 466.686 1090.81 464 1087.5 464V468ZM959.5 464C956.186 464 953.5 466.686 953.5 470H957.5C957.5 468.895 958.395 468 959.5 468V464Z" fill="#4CAF50"/>
<path d="M1017.95 526.057H1014.26V529.08H1018.55V530H1013.13V521.469H1018.49V522.395H1014.26V525.137H1017.95V526.057ZM1026.38 527.293C1026.27 528.195 1025.94 528.893 1025.38 529.385C1024.82 529.873 1024.07 530.117 1023.14 530.117C1022.13 530.117 1021.33 529.756 1020.72 529.033C1020.11 528.311 1019.81 527.344 1019.81 526.133V525.312C1019.81 524.52 1019.95 523.822 1020.23 523.221C1020.52 522.619 1020.92 522.158 1021.44 521.838C1021.96 521.514 1022.56 521.352 1023.24 521.352C1024.15 521.352 1024.88 521.605 1025.42 522.113C1025.97 522.617 1026.29 523.316 1026.38 524.211H1025.25C1025.15 523.531 1024.94 523.039 1024.61 522.734C1024.28 522.43 1023.83 522.277 1023.24 522.277C1022.52 522.277 1021.96 522.543 1021.55 523.074C1021.14 523.605 1020.94 524.361 1020.94 525.342V526.168C1020.94 527.094 1021.13 527.83 1021.52 528.377C1021.91 528.924 1022.45 529.197 1023.14 529.197C1023.77 529.197 1024.25 529.057 1024.58 528.775C1024.91 528.49 1025.14 527.996 1025.25 527.293H1026.38ZM1034.07 521.469V527.27C1034.07 528.074 1033.82 528.732 1033.31 529.244C1032.81 529.756 1032.13 530.043 1031.27 530.105L1030.97 530.117C1030.04 530.117 1029.3 529.865 1028.74 529.361C1028.19 528.857 1027.91 528.164 1027.9 527.281V521.469H1029.01V527.246C1029.01 527.863 1029.18 528.344 1029.52 528.688C1029.86 529.027 1030.35 529.197 1030.97 529.197C1031.61 529.197 1032.1 529.027 1032.43 528.688C1032.77 528.348 1032.94 527.869 1032.94 527.252V521.469H1034.07Z" fill="white"/>
<path d="M959.5 509H1087.5V505H959.5V509ZM1089.5 511V540H1093.5V511H1089.5ZM1087.5 542H959.5V546H1087.5V542ZM957.5 540V511H953.5V540H957.5ZM959.5 542C958.395 542 957.5 541.105 957.5 540H953.5C953.5 543.314 956.186 546 959.5 546V542ZM1089.5 540C1089.5 541.105 1088.6 542 1087.5 542V546C1090.81 546 1093.5 543.314 1093.5 540H1089.5ZM1087.5 509C1088.6 509 1089.5 509.895 1089.5 511H1093.5C1093.5 507.686 1090.81 505 1087.5 505V509ZM959.5 505C956.186 505 953.5 507.686 953.5 511H957.5C957.5 509.895 958.395 509 959.5 509V505Z" fill="#4CAF50"/>
<line x1="404" y1="133" x2="1023" y2="133" stroke="white" stroke-width="2" stroke-linecap="round"/>
</g>
</g>
<g filter="url(#filter1_d_701_2314)">
<path d="M1736.77 317.157C1737.61 313.54 1738.06 309.785 1738.06 305.928C1738.06 277.247 1713.64 254 1683.5 254C1662.77 254 1644.76 265.006 1635.51 281.207C1629.98 278.31 1623.61 276.647 1616.84 276.647C1595.46 276.647 1578.13 293.139 1578.13 313.488C1578.13 314.02 1578.15 314.551 1578.17 315.083H1578.05C1559.79 315.083 1545 329.175 1545 346.541C1545 363.908 1559.79 378 1578.05 378H1724.94C1743.19 378 1757.98 363.908 1757.98 346.541C1758 333.135 1749.18 321.7 1736.77 317.157Z" fill="url(#paint0_radial_701_2314)" shape-rendering="crispEdges"/>
</g>
<g filter="url(#filter2_d_701_2314)">
<circle cx="1416" cy="339" r="15" fill="white"/>
</g>
<g filter="url(#filter3_d_701_2314)">
<circle cx="1461" cy="339" r="10" fill="white"/>
</g>
<g filter="url(#filter4_d_701_2314)">
<circle cx="1496" cy="339" r="5" fill="white"/>
</g>
</g>
<defs>
<filter id="filter0_i_701_2314" x="196" y="46" width="1035" height="542" filterUnits="userSpaceOnUse" color-interpolation-filters="sRGB">
<feFlood flood-opacity="0" result="BackgroundImageFix"/>
<feBlend mode="normal" in="SourceGraphic" in2="BackgroundImageFix" result="shape"/>
<feColorMatrix in="SourceAlpha" type="matrix" values="0 0 0 0 0 0 0 0 0 0 0 0 0 0 0 0 0 0 127 0" result="hardAlpha"/>
<feOffset/>
<feGaussianBlur stdDeviation="2.5"/>
<feComposite in2="hardAlpha" operator="arithmetic" k2="-1" k3="1"/>
<feColorMatrix type="matrix" values="0 0 0 0 0 0 0 0 0 0 0 0 0 0 0 0 0 0 0.25 0"/>
<feBlend mode="normal" in2="shape" result="effect1_innerShadow_701_2314"/>
</filter>
<filter id="filter1_d_701_2314" x="1541" y="250" width="222.982" height="134" filterUnits="userSpaceOnUse" color-interpolation-filters="sRGB">
<feFlood flood-opacity="0" result="BackgroundImageFix"/>
<feColorMatrix in="SourceAlpha" type="matrix" values="0 0 0 0 0 0 0 0 0 0 0 0 0 0 0 0 0 0 127 0" result="hardAlpha"/>
<feOffset dx="1" dy="1"/>
<feGaussianBlur stdDeviation="2.5"/>
<feComposite in2="hardAlpha" operator="out"/>
<feColorMatrix type="matrix" values="0 0 0 0 0.45 0 0 0 0 0.45 0 0 0 0 0.45 0 0 0 0.15 0"/>
<feBlend mode="normal" in2="BackgroundImageFix" result="effect1_dropShadow_701_2314"/>
<feBlend mode="normal" in="SourceGraphic" in2="effect1_dropShadow_701_2314" result="shape"/>
</filter>
<filter id="filter2_d_701_2314" x="1398" y="321" width="36" height="36" filterUnits="userSpaceOnUse" color-interpolation-filters="sRGB">
<feFlood flood-opacity="0" result="BackgroundImageFix"/>
<feColorMatrix in="SourceAlpha" type="matrix" values="0 0 0 0 0 0 0 0 0 0 0 0 0 0 0 0 0 0 127 0" result="hardAlpha"/>
<feOffset/>
<feGaussianBlur stdDeviation="1.5"/>
<feComposite in2="hardAlpha" operator="out"/>
<feColorMatrix type="matrix" values="0 0 0 0 0 0 0 0 0 0 0 0 0 0 0 0 0 0 0.1 0"/>
<feBlend mode="normal" in2="BackgroundImageFix" result="effect1_dropShadow_701_2314"/>
<feBlend mode="normal" in="SourceGraphic" in2="effect1_dropShadow_701_2314" result="shape"/>
</filter>
<filter id="filter3_d_701_2314" x="1448" y="326" width="26" height="26" filterUnits="userSpaceOnUse" color-interpolation-filters="sRGB">
<feFlood flood-opacity="0" result="BackgroundImageFix"/>
<feColorMatrix in="SourceAlpha" type="matrix" values="0 0 0 0 0 0 0 0 0 0 0 0 0 0 0 0 0 0 127 0" result="hardAlpha"/>
<feOffset/>
<feGaussianBlur stdDeviation="1.5"/>
<feComposite in2="hardAlpha" operator="out"/>
<feColorMatrix type="matrix" values="0 0 0 0 0 0 0 0 0 0 0 0 0 0 0 0 0 0 0.1 0"/>
<feBlend mode="normal" in2="BackgroundImageFix" result="effect1_dropShadow_701_2314"/>
<feBlend mode="normal" in="SourceGraphic" in2="effect1_dropShadow_701_2314" result="shape"/>
</filter>
<filter id="filter4_d_701_2314" x="1488" y="331" width="16" height="16" filterUnits="userSpaceOnUse" color-interpolation-filters="sRGB">
<feFlood flood-opacity="0" result="BackgroundImageFix"/>
<feColorMatrix in="SourceAlpha" type="matrix" values="0 0 0 0 0 0 0 0 0 0 0 0 0 0 0 0 0 0 127 0" result="hardAlpha"/>
<feOffset/>
<feGaussianBlur stdDeviation="1.5"/>
<feComposite in2="hardAlpha" operator="out"/>
<feColorMatrix type="matrix" values="0 0 0 0 0 0 0 0 0 0 0 0 0 0 0 0 0 0 0.1 0"/>
<feBlend mode="normal" in2="BackgroundImageFix" result="effect1_dropShadow_701_2314"/>
<feBlend mode="normal" in="SourceGraphic" in2="effect1_dropShadow_701_2314" result="shape"/>
</filter>
<radialGradient id="paint0_radial_701_2314" cx="0" cy="0" r="1" gradientUnits="userSpaceOnUse" gradientTransform="translate(1545 254) rotate(30.2062) scale(246.465 423.329)">
<stop stop-color="white"/>
<stop offset="1" stop-color="white" stop-opacity="0.5"/>
</radialGradient>
<clipPath id="clip0_701_2314">
<rect width="1758" height="635" fill="white"/>
</clipPath>
<clipPath id="clip1_701_2314">
<rect width="1351" height="635" fill="white"/>
</clipPath>
</defs>
</svg>
